<?xml version="1.0" encoding="utf-8"?>
<!-- Generator: Adobe Illustrator 24.0.0, SVG Export Plug-In . SVG Version: 6.00 Build 0)  -->
<svg version="1.1" id="Layer_1" xmlns="http://www.w3.org/2000/svg" xmlns:xlink="http://www.w3.org/1999/xlink" x="0px" y="0px"
	 viewBox="0 0 595.3 241.5" style="enable-background:new 0 0 595.3 241.5;" xml:space="preserve">
    <link href='https://fonts.googleapis.com/css?family=Roboto' rel='stylesheet' type='text/css'/>
<style type="text/css">
	.st0{fill:#FFFFFF;}
	.st1{fill:#7EB642;}
	.st2{opacity:0.3;}
	.st3{fill:#BCBEC0;}
	.st4{fill:#F0EFEF;}
	.st5{fill:#010101;}
	.st6{opacity:0.5;}
	.st7{fill:#808285;}
	.st8{font-family:'Roboto Regular';}
	.st9{font-size:9px;}
	.st10{font-family:'Roboto Medium';}
	.st11{font-size:19.5795px;}
	.st12{font-family:'Roboto Black';}
	.st13{font-size:8px;}
	.st14{opacity:0.4;fill:#BCBEC0;}
	.st15{fill:#6E6F72;}
	.st16{opacity:0.92;}
	.st17{fill:#93C83E;}
	.st18{opacity:0.2;}
	.st19{fill:#818285;}
</style>
<polygon class="st1" points="6.2,0 0,241.5 0,241.5 0,0 "/>
<polygon class="st3" points="378.5,0 0,241.5 373.1,0 "/>
<polygon class="st4" points="595.3,0 595.3,241.5 0,241.5 378.5,0 "/>
<g class="st6">
	<path class="st0" d="M452.8,8.8c-4.2,0-12.1,0-16.8,0c-2.3,0-3.9,0-3.9,0l-1.7,0l-2.9,0l-2.9,0v41.4h2.9h2.9h1.7c0,0,1.6,0,3.9,0
		c5,0,13.5,0,16.8,0c11.4,0,20.7-9.3,20.7-20.7C473.5,18.1,464.2,8.8,452.8,8.8z"/>
	<path class="st0" d="M302.1,57.8c11.4,0,20.7,9.3,20.7,20.7c0,11.4-9.3,20.7-20.7,20.7c-11.4,0-20.7-9.3-20.7-20.7
		C281.3,67.1,290.6,57.8,302.1,57.8z"/>
	<path class="st0" d="M424.8,7.1c11.4,0,20.7,9.3,20.7,20.7c0,11.4-9.3,20.7-20.7,20.7c-11.4,0-20.7-9.3-20.7-20.7
		C404,16.4,413.3,7.1,424.8,7.1z"/>
	<path class="st0" d="M419.2,62.4l-3.6,0c0,0-2.2,0-5.1,0c-0.4,0-0.9,0-1.3,0c-3.6,0-7.8,0-9.7,0c-8.9,0-16.1,7.2-16.1,16.1
		c0,8.9,7.2,16.1,16.1,16.1c2.4,0,6.3,0,9.7,0c0.5,0,0.9,0,1.3,0c2.9,0,5.1,0,5.1,0l3.6,0h2.3V62.4H419.2z"/>
	<path class="st0" d="M443.4,62.4c-3.3,0-9.4,0-13.1,0c-1.8,0-3,0-3,0H426h-2.2h-2.3v32.2h2.3h2.2h1.3c0,0,1.2,0,3,0
		c3.9,0,10.5,0,13.1,0c8.9,0,16.1-7.2,16.1-16.1C459.5,69.6,452.3,62.4,443.4,62.4z"/>
	<path class="st0" d="M419.2,104.6h-3.6c0,0-2.2,0-5.1,0c-0.4,0-0.9,0-1.3,0c-3.6,0-7.8,0-9.7,0c-8.9,0-16.1,7.2-16.1,16.1
		c0,8.9,7.2,16.1,16.1,16.1c2.4,0,6.3,0,9.7,0c0.5,0,0.9,0,1.3,0c2.9,0,5.1,0,5.1,0l3.6,0h2.3v-32.2L419.2,104.6z"/>
	<path class="st0" d="M443.4,104.6c-3.3,0-9.4,0-13.1,0c-1.8,0-3,0-3,0H426h-2.2h-2.3v32.2h2.3h2.2h1.3c0,0,1.2,0,3,0
		c3.9,0,10.5,0,13.1,0c8.9,0,16.1-7.2,16.1-16.1C459.5,111.8,452.3,104.6,443.4,104.6z"/>
	<path class="st0" d="M236.8,106.8c11.4,0,20.7,9.3,20.7,20.7c0,11.4-9.3,20.7-20.7,20.7c-11.4,0-20.7-9.3-20.7-20.7
		C216.1,116.1,225.4,106.8,236.8,106.8z"/>
	<path class="st0" d="M316.6,153H312c0,0-2.9,0-6.5,0c-0.6,0-1.1,0-1.7,0c-4.7,0-10,0-12.5,0c-11.4,0-20.7,9.3-20.7,20.7
		c0,11.4,9.3,20.7,20.7,20.7c3.1,0,8.1,0,12.5,0c0.6,0,1.2,0,1.7,0c3.7,0,6.5,0,6.5,0h4.6h2.9V153H316.6z"/>
	<polygon class="st0" points="344,153 319.5,153 319.5,194.4 344,194.4 368.5,194.4 368.5,153 	"/>
	<path class="st0" d="M396.8,153c-4.2,0-12.1,0-16.8,0c-2.3,0-3.9,0-3.9,0h-1.7l-2.9,0h-2.9v41.4h2.9l2.9,0h1.7c0,0,1.6,0,3.9,0
		c5,0,13.5,0,16.8,0c11.4,0,20.7-9.3,20.7-20.7C417.5,162.3,408.2,153,396.8,153z"/>
</g>
<g>
	<path class="st1" d="M449.8,80.4c0.1-0.4,0.1-0.9,0.1-1.3s0-0.9-0.1-1.3h2.2c0.1,0.4,0.2,0.9,0.2,1.3c0,0.5-0.1,0.9-0.2,1.3
		 M448.7,84c0.4-0.7,0.7-1.5,0.9-2.3h1.9C450.9,82.8,449.9,83.6,448.7,84 M448.5,80.4h-3.1c-0.1-0.4-0.1-0.9-0.1-1.3s0-0.9,0.1-1.3
		h3.1c0.1,0.4,0.1,0.9,0.1,1.3S448.5,79.9,448.5,80.4 M447,84.3c-0.5-0.8-1-1.7-1.3-2.6h2.5C447.9,82.6,447.5,83.5,447,84.3
		 M444.3,76.4h-1.9c0.6-1.1,1.6-1.9,2.8-2.3C444.8,74.8,444.5,75.6,444.3,76.4 M442.4,81.7h1.9c0.2,0.8,0.5,1.6,0.9,2.3
		C444,83.6,443,82.8,442.4,81.7 M441.9,80.4c-0.1-0.4-0.2-0.9-0.2-1.3c0-0.5,0.1-0.9,0.2-1.3h2.2c-0.1,0.4-0.1,0.9-0.1,1.3
		s0,0.9,0.1,1.3 M447,73.8c0.5,0.8,1,1.7,1.3,2.6h-2.5C446,75.5,446.4,74.6,447,73.8 M451.5,76.4h-1.9c-0.2-0.8-0.5-1.6-0.9-2.3
		C449.9,74.5,450.9,75.3,451.5,76.4 M447,72.5c-3.6,0-6.6,3-6.6,6.6c0,3.6,2.9,6.6,6.6,6.6s6.6-2.9,6.6-6.6S450.6,72.5,447,72.5z"/>
</g>
<g>
	<path class="st1" d="M442.8,119.9c0.9,1.9,2.5,3.4,4.3,4.3l1.4-1.4c0.2-0.2,0.4-0.2,0.7-0.2c0.7,0.2,1.5,0.4,2.3,0.4
		c0.4,0,0.7,0.3,0.7,0.7v2.3c0,0.4-0.3,0.7-0.7,0.7c-6.2,0-11.2-5-11.2-11.2c0-0.4,0.3-0.7,0.7-0.7h2.3c0.4,0,0.7,0.3,0.7,0.7
		c0,0.8,0.1,1.6,0.4,2.3c0.1,0.2,0,0.5-0.2,0.7L442.8,119.9z"/>
</g>
<text transform="matrix(1 0 0 1 509.9359 33.2011)"><tspan x="0" y="0" class="st7 st8 st9">Saffoury</tspan><tspan x="33.9" y="0" class="st7 st10 st9">Paper</tspan><tspan x="-50.8" y="10.8" class="st7 st8 st9">Commercial Register: 1405</tspan><tspan x="-11.6" y="21.6" class="st7 st8 st9">Damascus - Syria</tspan><tspan x="-25.1" y="43.2" class="st7 st8 st9">wwww.saffoury.com</tspan><tspan x="-26.6" y="54" class="st7 st8 st9">paper@saffoury.com</tspan><tspan x="2.1" y="75.6" class="st7 st8 st9">098-9944-381</tspan><tspan x="2.1" y="86.4" class="st7 st8 st9">098-9944-380</tspan><tspan x="2.1" y="97.2" class="st7 st8 st9">011-544-6170</tspan><tspan x="-9.2" y="108" class="st7 st8 st9">011-542-4945(6)</tspan></text>
<g>
	<path class="st1" d="M540.8,157.5c0.4,0,0.7,0.3,0.7,0.7c0,0.4-0.3,0.7-0.7,0.7c-0.4,0-0.7-0.3-0.7-0.7
		C540.1,157.8,540.4,157.5,540.8,157.5z"/>
	<path class="st1" d="M544.7,157.5h-0.2c0,0-0.1,0-0.2,0c0,0,0,0-0.1,0c-0.2,0-0.3,0-0.4,0c-0.4,0-0.7,0.3-0.7,0.7
		c0,0.4,0.3,0.7,0.7,0.7c0.1,0,0.3,0,0.4,0c0,0,0,0,0.1,0c0.1,0,0.2,0,0.2,0h0.2h0.1L544.7,157.5L544.7,157.5z"/>
	<path class="st1" d="M545.8,157.5c-0.1,0-0.4,0-0.6,0c-0.1,0-0.1,0-0.1,0H545h-0.1h-0.1v1.4h0.1h0.1h0.1c0,0,0.1,0,0.1,0
		c0.2,0,0.4,0,0.6,0c0.4,0,0.7-0.3,0.7-0.7C546.5,157.8,546.2,157.5,545.8,157.5z"/>
	<path class="st1" d="M549.6,157.5h-0.2c0,0-0.1,0-0.2,0c0,0,0,0-0.1,0c-0.2,0-0.3,0-0.4,0c-0.4,0-0.7,0.3-0.7,0.7
		c0,0.4,0.3,0.7,0.7,0.7c0.1,0,0.3,0,0.4,0c0,0,0,0,0.1,0c0.1,0,0.2,0,0.2,0h0.2h0.1L549.6,157.5L549.6,157.5z"/>
	<polygon class="st1" points="550.5,157.5 549.7,157.5 549.7,158.9 550.5,158.9 551.3,158.9 551.3,157.5 	"/>
	<path class="st1" d="M552.2,157.5c-0.1,0-0.4,0-0.6,0c-0.1,0-0.1,0-0.1,0h-0.1h-0.1h-0.1v1.4h0.1h0.1h0.1c0,0,0.1,0,0.1,0
		c0.2,0,0.4,0,0.6,0c0.4,0,0.7-0.3,0.7-0.7C552.9,157.8,552.6,157.5,552.2,157.5z"/>
	<path class="st1" d="M540.8,159.1c0.4,0,0.7,0.3,0.7,0.7c0,0.4-0.3,0.7-0.7,0.7c-0.4,0-0.7-0.3-0.7-0.7
		C540.1,159.5,540.4,159.1,540.8,159.1z"/>
	<path class="st1" d="M547.3,159.1c0.4,0,0.7,0.3,0.7,0.7c0,0.4-0.3,0.7-0.7,0.7s-0.7-0.3-0.7-0.7
		C546.6,159.5,546.9,159.1,547.3,159.1z"/>
	<path class="st1" d="M550.5,159.1c0.4,0,0.7,0.3,0.7,0.7c0,0.4-0.3,0.7-0.7,0.7s-0.7-0.3-0.7-0.7
		C549.8,159.5,550.1,159.1,550.5,159.1z"/>
	<path class="st1" d="M540.8,160.8c0.4,0,0.7,0.3,0.7,0.7c0,0.4-0.3,0.7-0.7,0.7c-0.4,0-0.7-0.3-0.7-0.7
		C540.1,161.1,540.4,160.8,540.8,160.8z"/>
	<path class="st1" d="M544.7,160.8h-0.2c0,0-0.1,0-0.2,0c0,0,0,0-0.1,0c-0.2,0-0.3,0-0.4,0c-0.4,0-0.7,0.3-0.7,0.7
		c0,0.4,0.3,0.7,0.7,0.7c0.1,0,0.3,0,0.4,0c0,0,0,0,0.1,0c0.1,0,0.2,0,0.2,0h0.2h0.1L544.7,160.8L544.7,160.8z"/>
	<path class="st1" d="M545.8,160.8c-0.1,0-0.4,0-0.6,0c-0.1,0-0.1,0-0.1,0H545h-0.1h-0.1v1.4h0.1h0.1h0.1c0,0,0.1,0,0.1,0
		c0.2,0,0.4,0,0.6,0c0.4,0,0.7-0.3,0.7-0.7C546.5,161.1,546.2,160.8,545.8,160.8z"/>
	<path class="st1" d="M549.6,160.8h-0.2c0,0-0.1,0-0.2,0c0,0,0,0-0.1,0c-0.2,0-0.3,0-0.4,0c-0.4,0-0.7,0.3-0.7,0.7
		c0,0.4,0.3,0.7,0.7,0.7c0.1,0,0.3,0,0.4,0c0,0,0,0,0.1,0c0.1,0,0.2,0,0.2,0h0.2h0.1L549.6,160.8L549.6,160.8z"/>
	<polygon class="st1" points="550.5,160.8 549.7,160.8 549.7,162.1 550.5,162.1 551.3,162.1 551.3,160.8 	"/>
	<polygon class="st1" points="552.1,160.8 551.3,160.8 551.3,162.1 552.1,162.1 552.9,162.1 552.9,160.8 	"/>
	<path class="st1" d="M553.9,160.8c-0.1,0-0.4,0-0.6,0c-0.1,0-0.1,0-0.1,0h-0.1H553h-0.1v1.4h0.1h0.1h0.1c0,0,0.1,0,0.1,0
		c0.2,0,0.4,0,0.6,0c0.4,0,0.7-0.3,0.7-0.7C554.6,161.1,554.2,160.8,553.9,160.8z"/>
	<path class="st1" d="M547.3,162.4c0.4,0,0.7,0.3,0.7,0.7c0,0.4-0.3,0.7-0.7,0.7s-0.7-0.3-0.7-0.7
		C546.6,162.7,546.9,162.4,547.3,162.4z"/>
	<path class="st1" d="M552.1,162.4c0.4,0,0.7,0.3,0.7,0.7c0,0.4-0.3,0.7-0.7,0.7s-0.7-0.3-0.7-0.7
		C551.4,162.7,551.7,162.4,552.1,162.4z"/>
	<path class="st1" d="M540.8,164c0.4,0,0.7,0.3,0.7,0.7c0,0.4-0.3,0.7-0.7,0.7c-0.4,0-0.7-0.3-0.7-0.7
		C540.1,164.3,540.4,164,540.8,164z"/>
	<path class="st1" d="M544,164c0.4,0,0.7,0.3,0.7,0.7c0,0.4-0.3,0.7-0.7,0.7c-0.4,0-0.7-0.3-0.7-0.7C543.3,164.3,543.7,164,544,164z
		"/>
	<path class="st1" d="M547.3,164c0.4,0,0.7,0.3,0.7,0.7c0,0.4-0.3,0.7-0.7,0.7s-0.7-0.3-0.7-0.7C546.6,164.3,546.9,164,547.3,164z"
		/>
	<path class="st1" d="M550.5,164c0.4,0,0.7,0.3,0.7,0.7c0,0.4-0.3,0.7-0.7,0.7s-0.7-0.3-0.7-0.7C549.8,164.3,550.1,164,550.5,164z"
		/>
	<path class="st1" d="M543.1,165.6H543c0,0-0.1,0-0.2,0c0,0,0,0-0.1,0c-0.2,0-0.3,0-0.4,0c-0.4,0-0.7,0.3-0.7,0.7
		c0,0.4,0.3,0.7,0.7,0.7c0.1,0,0.3,0,0.4,0c0,0,0,0,0.1,0c0.1,0,0.2,0,0.2,0h0.2h0.1L543.1,165.6L543.1,165.6z"/>
	<polygon class="st1" points="544,165.6 543.2,165.6 543.2,167 544,167 544.8,167 544.8,165.6 	"/>
	<path class="st1" d="M545.8,165.6c-0.1,0-0.4,0-0.6,0c-0.1,0-0.1,0-0.1,0H545h-0.1h-0.1v1.4h0.1h0.1h0.1c0,0,0.1,0,0.1,0
		c0.2,0,0.4,0,0.6,0c0.4,0,0.7-0.3,0.7-0.7C546.5,165.9,546.2,165.6,545.8,165.6z"/>
	<path class="st1" d="M550.5,165.6c0.4,0,0.7,0.3,0.7,0.7c0,0.4-0.3,0.7-0.7,0.7s-0.7-0.3-0.7-0.7
		C549.8,165.9,550.1,165.6,550.5,165.6z"/>
	<path class="st1" d="M540.8,167.2c0.4,0,0.7,0.3,0.7,0.7c0,0.4-0.3,0.7-0.7,0.7c-0.4,0-0.7-0.3-0.7-0.7
		C540.1,167.5,540.4,167.2,540.8,167.2z"/>
	<path class="st1" d="M544,167.2c0.4,0,0.7,0.3,0.7,0.7c0,0.4-0.3,0.7-0.7,0.7c-0.4,0-0.7-0.3-0.7-0.7
		C543.3,167.5,543.7,167.2,544,167.2z"/>
	<path class="st1" d="M547.3,167.2c0.4,0,0.7,0.3,0.7,0.7c0,0.4-0.3,0.7-0.7,0.7s-0.7-0.3-0.7-0.7
		C546.6,167.5,546.9,167.2,547.3,167.2z"/>
	<path class="st1" d="M550.5,167.2c0.4,0,0.7,0.3,0.7,0.7c0,0.4-0.3,0.7-0.7,0.7s-0.7-0.3-0.7-0.7
		C549.8,167.5,550.1,167.2,550.5,167.2z"/>
	<path class="st1" d="M553.7,167.2c0.4,0,0.7,0.3,0.7,0.7c0,0.4-0.3,0.7-0.7,0.7s-0.7-0.3-0.7-0.7
		C553.1,167.5,553.4,167.2,553.7,167.2z"/>
	<path class="st1" d="M544.7,168.9h-0.2c0,0-0.1,0-0.2,0c0,0,0,0-0.1,0c-0.2,0-0.3,0-0.4,0c-0.4,0-0.7,0.3-0.7,0.7
		c0,0.4,0.3,0.7,0.7,0.7c0.1,0,0.3,0,0.4,0c0,0,0,0,0.1,0c0.1,0,0.2,0,0.2,0h0.2h0.1L544.7,168.9L544.7,168.9z"/>
	<polygon class="st1" points="545.6,168.9 544.8,168.9 544.8,170.2 545.6,170.2 546.5,170.2 546.5,168.9 	"/>
	<polygon class="st1" points="547.3,168.9 546.5,168.9 546.5,170.2 547.3,170.2 548.1,170.2 548.1,168.9 	"/>
	<path class="st1" d="M549,168.9c-0.1,0-0.4,0-0.6,0c-0.1,0-0.1,0-0.1,0h-0.1h-0.1h-0.1v1.4h0.1h0.1h0.1c0,0,0.1,0,0.1,0
		c0.2,0,0.4,0,0.6,0c0.4,0,0.7-0.3,0.7-0.7C549.7,169.2,549.4,168.9,549,168.9z"/>
	<path class="st1" d="M553.7,168.9c0.4,0,0.7,0.3,0.7,0.7c0,0.4-0.3,0.7-0.7,0.7s-0.7-0.3-0.7-0.7
		C553.1,169.2,553.4,168.9,553.7,168.9z"/>
	<path class="st1" d="M527.8,170.5c0.4,0,0.7,0.3,0.7,0.7c0,0.4-0.3,0.7-0.7,0.7s-0.7-0.3-0.7-0.7
		C527.2,170.8,527.5,170.5,527.8,170.5z"/>
	<path class="st1" d="M533.4,170.5h-0.2c0,0-0.1,0-0.2,0c0,0,0,0-0.1,0c-0.2,0-0.3,0-0.4,0c-0.4,0-0.7,0.3-0.7,0.7
		c0,0.4,0.3,0.7,0.7,0.7c0.1,0,0.3,0,0.4,0c0,0,0,0,0.1,0c0.1,0,0.2,0,0.2,0h0.2h0.1L533.4,170.5L533.4,170.5z"/>
	<polygon class="st1" points="534.3,170.5 533.5,170.5 533.5,171.8 534.3,171.8 535.1,171.8 535.1,170.5 	"/>
	<polygon class="st1" points="535.9,170.5 535.1,170.5 535.1,171.8 535.9,171.8 536.7,171.8 536.7,170.5 	"/>
	<polygon class="st1" points="537.6,170.5 536.7,170.5 536.7,171.8 537.6,171.8 538.4,171.8 538.4,170.5 	"/>
	<polygon class="st1" points="539.2,170.5 538.4,170.5 538.4,171.8 539.2,171.8 540,171.8 540,170.5 	"/>
	<path class="st1" d="M540.9,170.5c-0.1,0-0.4,0-0.6,0c-0.1,0-0.1,0-0.1,0h-0.1h-0.1H540v1.4h0.1h0.1h0.1c0,0,0.1,0,0.1,0
		c0.2,0,0.4,0,0.6,0c0.4,0,0.7-0.3,0.7-0.7C541.6,170.8,541.3,170.5,540.9,170.5z"/>
	<path class="st1" d="M544.7,170.5h-0.2c0,0-0.1,0-0.2,0c0,0,0,0-0.1,0c-0.2,0-0.3,0-0.4,0c-0.4,0-0.7,0.3-0.7,0.7
		c0,0.4,0.3,0.7,0.7,0.7c0.1,0,0.3,0,0.4,0c0,0,0,0,0.1,0c0.1,0,0.2,0,0.2,0h0.2h0.1L544.7,170.5L544.7,170.5z"/>
	<polygon class="st1" points="545.6,170.5 544.8,170.5 544.8,171.8 545.6,171.8 546.5,171.8 546.5,170.5 	"/>
	<polygon class="st1" points="547.3,170.5 546.5,170.5 546.5,171.8 547.3,171.8 548.1,171.8 548.1,170.5 	"/>
	<polygon class="st1" points="548.9,170.5 548.1,170.5 548.1,171.8 548.9,171.8 549.7,171.8 549.7,170.5 	"/>
	<path class="st1" d="M550.6,170.5c-0.1,0-0.4,0-0.6,0c-0.1,0-0.1,0-0.1,0h-0.1h-0.1h-0.1v1.4h0.1h0.1h0.1c0,0,0.1,0,0.1,0
		c0.2,0,0.4,0,0.6,0c0.4,0,0.7-0.3,0.7-0.7C551.3,170.8,551,170.5,550.6,170.5z"/>
	<path class="st1" d="M554.5,170.5h-0.2c0,0-0.1,0-0.2,0c0,0,0,0-0.1,0c-0.2,0-0.3,0-0.4,0c-0.4,0-0.7,0.3-0.7,0.7
		c0,0.4,0.3,0.7,0.7,0.7c0.1,0,0.3,0,0.4,0c0,0,0,0,0.1,0c0.1,0,0.2,0,0.2,0h0.2h0.1L554.5,170.5L554.5,170.5z"/>
	<path class="st1" d="M555.5,170.5c-0.1,0-0.4,0-0.6,0c-0.1,0-0.1,0-0.1,0h-0.1h-0.1h-0.1v1.4h0.1h0.1h0.1c0,0,0.1,0,0.1,0
		c0.2,0,0.4,0,0.6,0c0.4,0,0.7-0.3,0.7-0.7C556.2,170.8,555.9,170.5,555.5,170.5z"/>
	<path class="st1" d="M560.2,170.5c0.4,0,0.7,0.3,0.7,0.7c0,0.4-0.3,0.7-0.7,0.7c-0.4,0-0.7-0.3-0.7-0.7
		C559.5,170.8,559.8,170.5,560.2,170.5z"/>
	<path class="st1" d="M564.2,170.5H564c0,0-0.1,0-0.2,0c0,0,0,0-0.1,0c-0.2,0-0.3,0-0.4,0c-0.4,0-0.7,0.3-0.7,0.7
		c0,0.4,0.3,0.7,0.7,0.7c0.1,0,0.3,0,0.4,0c0,0,0,0,0.1,0c0.1,0,0.2,0,0.2,0h0.2h0.1L564.2,170.5L564.2,170.5z"/>
	<polygon class="st1" points="565.1,170.5 564.3,170.5 564.3,171.8 565.1,171.8 565.9,171.8 565.9,170.5 	"/>
	<path class="st1" d="M566.8,170.5c-0.1,0-0.4,0-0.6,0c-0.1,0-0.1,0-0.1,0h-0.1H566h-0.1v1.4h0.1h0.1h0.1c0,0,0.1,0,0.1,0
		c0.2,0,0.4,0,0.6,0c0.4,0,0.7-0.3,0.7-0.7C567.5,170.8,567.2,170.5,566.8,170.5z"/>
	<path class="st1" d="M527.8,172.1c0.4,0,0.7,0.3,0.7,0.7c0,0.4-0.3,0.7-0.7,0.7s-0.7-0.3-0.7-0.7
		C527.2,172.4,527.5,172.1,527.8,172.1z"/>
	<path class="st1" d="M531.1,172.1c0.4,0,0.7,0.3,0.7,0.7c0,0.4-0.3,0.7-0.7,0.7s-0.7-0.3-0.7-0.7
		C530.4,172.4,530.7,172.1,531.1,172.1z"/>
	<path class="st1" d="M535,172.1h-0.2c0,0-0.1,0-0.2,0c0,0,0,0-0.1,0c-0.2,0-0.3,0-0.4,0c-0.4,0-0.7,0.3-0.7,0.7
		c0,0.4,0.3,0.7,0.7,0.7c0.1,0,0.3,0,0.4,0c0,0,0,0,0.1,0c0.1,0,0.2,0,0.2,0h0.2h0.1L535,172.1L535,172.1z"/>
	<path class="st1" d="M536.1,172.1c-0.1,0-0.4,0-0.6,0c-0.1,0-0.1,0-0.1,0h-0.1h-0.1h-0.1v1.4h0.1h0.1h0.1c0,0,0.1,0,0.1,0
		c0.2,0,0.4,0,0.6,0c0.4,0,0.7-0.3,0.7-0.7C536.7,172.4,536.4,172.1,536.1,172.1z"/>
	<path class="st1" d="M539.9,172.1h-0.2c0,0-0.1,0-0.2,0c0,0,0,0-0.1,0c-0.2,0-0.3,0-0.4,0c-0.4,0-0.7,0.3-0.7,0.7
		c0,0.4,0.3,0.7,0.7,0.7c0.1,0,0.3,0,0.4,0c0,0,0,0,0.1,0c0.1,0,0.2,0,0.2,0h0.2h0.1L539.9,172.1L539.9,172.1z"/>
	<polygon class="st1" points="540.8,172.1 540,172.1 540,173.5 540.8,173.5 541.6,173.5 541.6,172.1 	"/>
	<path class="st1" d="M542.5,172.1c-0.1,0-0.4,0-0.6,0c-0.1,0-0.1,0-0.1,0h-0.1h-0.1h-0.1v1.4h0.1h0.1h0.1c0,0,0.1,0,0.1,0
		c0.2,0,0.4,0,0.6,0c0.4,0,0.7-0.3,0.7-0.7C543.2,172.4,542.9,172.1,542.5,172.1z"/>
	<path class="st1" d="M546.4,172.1h-0.2c0,0-0.1,0-0.2,0c0,0,0,0-0.1,0c-0.2,0-0.3,0-0.4,0c-0.4,0-0.7,0.3-0.7,0.7
		c0,0.4,0.3,0.7,0.7,0.7c0.1,0,0.3,0,0.4,0c0,0,0,0,0.1,0c0.1,0,0.2,0,0.2,0h0.2h0.1L546.4,172.1L546.4,172.1z"/>
	<path class="st1" d="M547.4,172.1c-0.1,0-0.4,0-0.6,0c-0.1,0-0.1,0-0.1,0h-0.1h-0.1h-0.1v1.4h0.1h0.1h0.1c0,0,0.1,0,0.1,0
		c0.2,0,0.4,0,0.6,0c0.4,0,0.7-0.3,0.7-0.7C548.1,172.4,547.8,172.1,547.4,172.1z"/>
	<path class="st1" d="M552.1,172.1c0.4,0,0.7,0.3,0.7,0.7c0,0.4-0.3,0.7-0.7,0.7s-0.7-0.3-0.7-0.7
		C551.4,172.4,551.7,172.1,552.1,172.1z"/>
	<path class="st1" d="M559.3,172.1h-0.2c0,0-0.1,0-0.2,0c0,0,0,0-0.1,0c-0.2,0-0.3,0-0.4,0c-0.4,0-0.7,0.3-0.7,0.7
		c0,0.4,0.3,0.7,0.7,0.7c0.1,0,0.3,0,0.4,0c0,0,0,0,0.1,0c0.1,0,0.2,0,0.2,0h0.2h0.1L559.3,172.1L559.3,172.1z"/>
	<polygon class="st1" points="560.2,172.1 559.4,172.1 559.4,173.5 560.2,173.5 561,173.5 561,172.1 	"/>
	<polygon class="st1" points="561.8,172.1 561,172.1 561,173.5 561.8,173.5 562.6,173.5 562.6,172.1 	"/>
	<polygon class="st1" points="563.5,172.1 562.6,172.1 562.6,173.5 563.5,173.5 564.3,173.5 564.3,172.1 	"/>
	<path class="st1" d="M565.2,172.1c-0.1,0-0.4,0-0.6,0c-0.1,0-0.1,0-0.1,0h-0.1h-0.1h-0.1v1.4h0.1h0.1h0.1c0,0,0.1,0,0.1,0
		c0.2,0,0.4,0,0.6,0c0.4,0,0.7-0.3,0.7-0.7C565.9,172.4,565.6,172.1,565.2,172.1z"/>
	<path class="st1" d="M529.5,173.7c0.4,0,0.7,0.3,0.7,0.7c0,0.4-0.3,0.7-0.7,0.7s-0.7-0.3-0.7-0.7
		C528.8,174,529.1,173.7,529.5,173.7z"/>
	<path class="st1" d="M535,173.7h-0.2c0,0-0.1,0-0.2,0c0,0,0,0-0.1,0c-0.2,0-0.3,0-0.4,0c-0.4,0-0.7,0.3-0.7,0.7
		c0,0.4,0.3,0.7,0.7,0.7c0.1,0,0.3,0,0.4,0c0,0,0,0,0.1,0c0.1,0,0.2,0,0.2,0h0.2h0.1L535,173.7L535,173.7z"/>
	<polygon class="st1" points="535.9,173.7 535.1,173.7 535.1,175.1 535.9,175.1 536.7,175.1 536.7,173.7 	"/>
	<path class="st1" d="M537.7,173.7c-0.1,0-0.4,0-0.6,0c-0.1,0-0.1,0-0.1,0h-0.1h-0.1h-0.1v1.4h0.1h0.1h0.1c0,0,0.1,0,0.1,0
		c0.2,0,0.4,0,0.6,0c0.4,0,0.7-0.3,0.7-0.7C538.4,174,538.1,173.7,537.7,173.7z"/>
	<path class="st1" d="M544,173.7c0.4,0,0.7,0.3,0.7,0.7c0,0.4-0.3,0.7-0.7,0.7c-0.4,0-0.7-0.3-0.7-0.7
		C543.3,174,543.7,173.7,544,173.7z"/>
	<path class="st1" d="M548.9,173.7c0.4,0,0.7,0.3,0.7,0.7c0,0.4-0.3,0.7-0.7,0.7s-0.7-0.3-0.7-0.7
		C548.2,174,548.5,173.7,548.9,173.7z"/>
	<path class="st1" d="M552.8,173.7h-0.2c0,0-0.1,0-0.2,0c0,0,0,0-0.1,0c-0.2,0-0.3,0-0.4,0c-0.4,0-0.7,0.3-0.7,0.7
		c0,0.4,0.3,0.7,0.7,0.7c0.1,0,0.3,0,0.4,0c0,0,0,0,0.1,0c0.1,0,0.2,0,0.2,0h0.2h0.1L552.8,173.7L552.8,173.7z"/>
	<path class="st1" d="M553.9,173.7c-0.1,0-0.4,0-0.6,0c-0.1,0-0.1,0-0.1,0h-0.1H553h-0.1v1.4h0.1h0.1h0.1c0,0,0.1,0,0.1,0
		c0.2,0,0.4,0,0.6,0c0.4,0,0.7-0.3,0.7-0.7C554.6,174,554.2,173.7,553.9,173.7z"/>
	<path class="st1" d="M558.6,173.7c0.4,0,0.7,0.3,0.7,0.7c0,0.4-0.3,0.7-0.7,0.7c-0.4,0-0.7-0.3-0.7-0.7
		C557.9,174,558.2,173.7,558.6,173.7z"/>
	<path class="st1" d="M561.8,173.7c0.4,0,0.7,0.3,0.7,0.7c0,0.4-0.3,0.7-0.7,0.7c-0.4,0-0.7-0.3-0.7-0.7
		C561.1,174,561.5,173.7,561.8,173.7z"/>
	<path class="st1" d="M566.7,173.7c0.4,0,0.7,0.3,0.7,0.7c0,0.4-0.3,0.7-0.7,0.7s-0.7-0.3-0.7-0.7C566,174,566.3,173.7,566.7,173.7z
		"/>
	<path class="st1" d="M528.6,175.3h-0.2c0,0-0.1,0-0.2,0c0,0,0,0-0.1,0c-0.2,0-0.3,0-0.4,0c-0.4,0-0.7,0.3-0.7,0.7
		c0,0.4,0.3,0.7,0.7,0.7c0.1,0,0.3,0,0.4,0c0,0,0,0,0.1,0c0.1,0,0.2,0,0.2,0h0.2h0.1L528.6,175.3L528.6,175.3z"/>
	<polygon class="st1" points="529.5,175.3 528.7,175.3 528.7,176.7 529.5,176.7 530.3,176.7 530.3,175.3 	"/>
	<path class="st1" d="M531.2,175.3c-0.1,0-0.4,0-0.6,0c-0.1,0-0.1,0-0.1,0h-0.1h-0.1h-0.1v1.4h0.1h0.1h0.1c0,0,0.1,0,0.1,0
		c0.2,0,0.4,0,0.6,0c0.4,0,0.7-0.3,0.7-0.7C531.9,175.6,531.6,175.3,531.2,175.3z"/>
	<path class="st1" d="M535.9,175.3c0.4,0,0.7,0.3,0.7,0.7c0,0.4-0.3,0.7-0.7,0.7s-0.7-0.3-0.7-0.7
		C535.3,175.6,535.6,175.3,535.9,175.3z"/>
	<path class="st1" d="M539.2,175.3c0.4,0,0.7,0.3,0.7,0.7c0,0.4-0.3,0.7-0.7,0.7c-0.4,0-0.7-0.3-0.7-0.7
		C538.5,175.6,538.8,175.3,539.2,175.3z"/>
	<path class="st1" d="M544,175.3c0.4,0,0.7,0.3,0.7,0.7c0,0.4-0.3,0.7-0.7,0.7c-0.4,0-0.7-0.3-0.7-0.7
		C543.3,175.6,543.7,175.3,544,175.3z"/>
	<path class="st1" d="M551.2,175.3h-0.2c0,0-0.1,0-0.2,0c0,0,0,0-0.1,0c-0.2,0-0.3,0-0.4,0c-0.4,0-0.7,0.3-0.7,0.7
		c0,0.4,0.3,0.7,0.7,0.7c0.1,0,0.3,0,0.4,0c0,0,0,0,0.1,0c0.1,0,0.2,0,0.2,0h0.2h0.1L551.2,175.3L551.2,175.3z"/>
	<path class="st1" d="M552.2,175.3c-0.1,0-0.4,0-0.6,0c-0.1,0-0.1,0-0.1,0h-0.1h-0.1h-0.1v1.4h0.1h0.1h0.1c0,0,0.1,0,0.1,0
		c0.2,0,0.4,0,0.6,0c0.4,0,0.7-0.3,0.7-0.7C552.9,175.6,552.6,175.3,552.2,175.3z"/>
	<path class="st1" d="M558.6,175.3c0.4,0,0.7,0.3,0.7,0.7c0,0.4-0.3,0.7-0.7,0.7c-0.4,0-0.7-0.3-0.7-0.7
		C557.9,175.6,558.2,175.3,558.6,175.3z"/>
	<path class="st1" d="M562.5,175.3h-0.2c0,0-0.1,0-0.2,0c0,0,0,0-0.1,0c-0.2,0-0.3,0-0.4,0c-0.4,0-0.7,0.3-0.7,0.7
		c0,0.4,0.3,0.7,0.7,0.7c0.1,0,0.3,0,0.4,0c0,0,0,0,0.1,0c0.1,0,0.2,0,0.2,0h0.2h0.1L562.5,175.3L562.5,175.3z"/>
	<polygon class="st1" points="563.5,175.3 562.6,175.3 562.6,176.7 563.5,176.7 564.3,176.7 564.3,175.3 	"/>
	<polygon class="st1" points="565.1,175.3 564.3,175.3 564.3,176.7 565.1,176.7 565.9,176.7 565.9,175.3 	"/>
	<path class="st1" d="M566.8,175.3c-0.1,0-0.4,0-0.6,0c-0.1,0-0.1,0-0.1,0h-0.1H566h-0.1v1.4h0.1h0.1h0.1c0,0,0.1,0,0.1,0
		c0.2,0,0.4,0,0.6,0c0.4,0,0.7-0.3,0.7-0.7C567.5,175.6,567.2,175.3,566.8,175.3z"/>
	<path class="st1" d="M527.8,177c0.4,0,0.7,0.3,0.7,0.7c0,0.4-0.3,0.7-0.7,0.7s-0.7-0.3-0.7-0.7C527.2,177.3,527.5,177,527.8,177z"
		/>
	<path class="st1" d="M536.6,177h-0.2c0,0-0.1,0-0.2,0c0,0,0,0-0.1,0c-0.2,0-0.3,0-0.4,0c-0.4,0-0.7,0.3-0.7,0.7
		c0,0.4,0.3,0.7,0.7,0.7c0.1,0,0.3,0,0.4,0c0,0,0,0,0.1,0c0.1,0,0.2,0,0.2,0h0.2h0.1L536.6,177L536.6,177z"/>
	<polygon class="st1" points="537.6,177 536.7,177 536.7,178.3 537.6,178.3 538.4,178.3 538.4,177 	"/>
	<polygon class="st1" points="539.2,177 538.4,177 538.4,178.3 539.2,178.3 540,178.3 540,177 	"/>
	<path class="st1" d="M540.9,177c-0.1,0-0.4,0-0.6,0c-0.1,0-0.1,0-0.1,0h-0.1h-0.1H540v1.4h0.1h0.1h0.1c0,0,0.1,0,0.1,0
		c0.2,0,0.4,0,0.6,0c0.4,0,0.7-0.3,0.7-0.7C541.6,177.3,541.3,177,540.9,177z"/>
	<path class="st1" d="M544,177c0.4,0,0.7,0.3,0.7,0.7c0,0.4-0.3,0.7-0.7,0.7c-0.4,0-0.7-0.3-0.7-0.7C543.3,177.3,543.7,177,544,177z
		"/>
	<path class="st1" d="M547.3,177c0.4,0,0.7,0.3,0.7,0.7c0,0.4-0.3,0.7-0.7,0.7s-0.7-0.3-0.7-0.7C546.6,177.3,546.9,177,547.3,177z"
		/>
	<path class="st1" d="M553.7,177c0.4,0,0.7,0.3,0.7,0.7c0,0.4-0.3,0.7-0.7,0.7s-0.7-0.3-0.7-0.7C553.1,177.3,553.4,177,553.7,177z"
		/>
	<path class="st1" d="M557.7,177h-0.2c0,0-0.1,0-0.2,0c0,0,0,0-0.1,0c-0.2,0-0.3,0-0.4,0c-0.4,0-0.7,0.3-0.7,0.7
		c0,0.4,0.3,0.7,0.7,0.7c0.1,0,0.3,0,0.4,0c0,0,0,0,0.1,0c0.1,0,0.2,0,0.2,0h0.2h0.1L557.7,177L557.7,177z"/>
	<path class="st1" d="M558.7,177c-0.1,0-0.4,0-0.6,0c-0.1,0-0.1,0-0.1,0H558h-0.1h-0.1v1.4h0.1h0.1h0.1c0,0,0.1,0,0.1,0
		c0.2,0,0.4,0,0.6,0c0.4,0,0.7-0.3,0.7-0.7C559.4,177.3,559.1,177,558.7,177z"/>
	<path class="st1" d="M566.7,177c0.4,0,0.7,0.3,0.7,0.7c0,0.4-0.3,0.7-0.7,0.7s-0.7-0.3-0.7-0.7C566,177.3,566.3,177,566.7,177z"/>
	<path class="st1" d="M527.8,178.6c0.4,0,0.7,0.3,0.7,0.7c0,0.4-0.3,0.7-0.7,0.7s-0.7-0.3-0.7-0.7
		C527.2,178.9,527.5,178.6,527.8,178.6z"/>
	<path class="st1" d="M532.7,178.6c0.4,0,0.7,0.3,0.7,0.7c0,0.4-0.3,0.7-0.7,0.7s-0.7-0.3-0.7-0.7
		C532,178.9,532.3,178.6,532.7,178.6z"/>
	<path class="st1" d="M539.2,178.6c0.4,0,0.7,0.3,0.7,0.7c0,0.4-0.3,0.7-0.7,0.7c-0.4,0-0.7-0.3-0.7-0.7
		C538.5,178.9,538.8,178.6,539.2,178.6z"/>
	<path class="st1" d="M542.4,178.6c0.4,0,0.7,0.3,0.7,0.7c0,0.4-0.3,0.7-0.7,0.7c-0.4,0-0.7-0.3-0.7-0.7
		C541.7,178.9,542,178.6,542.4,178.6z"/>
	<path class="st1" d="M551.2,178.6h-0.2c0,0-0.1,0-0.2,0c0,0,0,0-0.1,0c-0.2,0-0.3,0-0.4,0c-0.4,0-0.7,0.3-0.7,0.7
		c0,0.4,0.3,0.7,0.7,0.7c0.1,0,0.3,0,0.4,0c0,0,0,0,0.1,0c0.1,0,0.2,0,0.2,0h0.2h0.1L551.2,178.6L551.2,178.6z"/>
	<path class="st1" d="M552.2,178.6c-0.1,0-0.4,0-0.6,0c-0.1,0-0.1,0-0.1,0h-0.1h-0.1h-0.1v1.4h0.1h0.1h0.1c0,0,0.1,0,0.1,0
		c0.2,0,0.4,0,0.6,0c0.4,0,0.7-0.3,0.7-0.7C552.9,178.9,552.6,178.6,552.2,178.6z"/>
	<path class="st1" d="M560.2,178.6c0.4,0,0.7,0.3,0.7,0.7c0,0.4-0.3,0.7-0.7,0.7c-0.4,0-0.7-0.3-0.7-0.7
		C559.5,178.9,559.8,178.6,560.2,178.6z"/>
	<path class="st1" d="M565.1,178.6c0.4,0,0.7,0.3,0.7,0.7c0,0.4-0.3,0.7-0.7,0.7c-0.4,0-0.7-0.3-0.7-0.7
		C564.4,178.9,564.7,178.6,565.1,178.6z"/>
	<path class="st1" d="M528.6,180.2h-0.2c0,0-0.1,0-0.2,0c0,0,0,0-0.1,0c-0.2,0-0.3,0-0.4,0c-0.4,0-0.7,0.3-0.7,0.7
		c0,0.4,0.3,0.7,0.7,0.7c0.1,0,0.3,0,0.4,0c0,0,0,0,0.1,0c0.1,0,0.2,0,0.2,0h0.2h0.1L528.6,180.2L528.6,180.2z"/>
	<polygon class="st1" points="529.5,180.2 528.7,180.2 528.7,181.6 529.5,181.6 530.3,181.6 530.3,180.2 	"/>
	<polygon class="st1" points="531.1,180.2 530.3,180.2 530.3,181.6 531.1,181.6 531.9,181.6 531.9,180.2 	"/>
	<path class="st1" d="M532.8,180.2c-0.1,0-0.4,0-0.6,0c-0.1,0-0.1,0-0.1,0h-0.1H532h-0.1v1.4h0.1h0.1h0.1c0,0,0.1,0,0.1,0
		c0.2,0,0.4,0,0.6,0c0.4,0,0.7-0.3,0.7-0.7C533.5,180.5,533.2,180.2,532.8,180.2z"/>
	<path class="st1" d="M536.6,180.2h-0.2c0,0-0.1,0-0.2,0c0,0,0,0-0.1,0c-0.2,0-0.3,0-0.4,0c-0.4,0-0.7,0.3-0.7,0.7
		c0,0.4,0.3,0.7,0.7,0.7c0.1,0,0.3,0,0.4,0c0,0,0,0,0.1,0c0.1,0,0.2,0,0.2,0h0.2h0.1L536.6,180.2L536.6,180.2z"/>
	<path class="st1" d="M537.7,180.2c-0.1,0-0.4,0-0.6,0c-0.1,0-0.1,0-0.1,0h-0.1h-0.1h-0.1v1.4h0.1h0.1h0.1c0,0,0.1,0,0.1,0
		c0.2,0,0.4,0,0.6,0c0.4,0,0.7-0.3,0.7-0.7C538.4,180.5,538.1,180.2,537.7,180.2z"/>
	<path class="st1" d="M546.4,180.2h-0.2c0,0-0.1,0-0.2,0c0,0,0,0-0.1,0c-0.2,0-0.3,0-0.4,0c-0.4,0-0.7,0.3-0.7,0.7
		c0,0.4,0.3,0.7,0.7,0.7c0.1,0,0.3,0,0.4,0c0,0,0,0,0.1,0c0.1,0,0.2,0,0.2,0h0.2h0.1L546.4,180.2L546.4,180.2z"/>
	<path class="st1" d="M547.4,180.2c-0.1,0-0.4,0-0.6,0c-0.1,0-0.1,0-0.1,0h-0.1h-0.1h-0.1v1.4h0.1h0.1h0.1c0,0,0.1,0,0.1,0
		c0.2,0,0.4,0,0.6,0c0.4,0,0.7-0.3,0.7-0.7C548.1,180.5,547.8,180.2,547.4,180.2z"/>
	<path class="st1" d="M552.8,180.2h-0.2c0,0-0.1,0-0.2,0c0,0,0,0-0.1,0c-0.2,0-0.3,0-0.4,0c-0.4,0-0.7,0.3-0.7,0.7
		c0,0.4,0.3,0.7,0.7,0.7c0.1,0,0.3,0,0.4,0c0,0,0,0,0.1,0c0.1,0,0.2,0,0.2,0h0.2h0.1L552.8,180.2L552.8,180.2z"/>
	<polygon class="st1" points="553.7,180.2 552.9,180.2 552.9,181.6 553.7,181.6 554.6,181.6 554.6,180.2 	"/>
	<path class="st1" d="M555.5,180.2c-0.1,0-0.4,0-0.6,0c-0.1,0-0.1,0-0.1,0h-0.1h-0.1h-0.1v1.4h0.1h0.1h0.1c0,0,0.1,0,0.1,0
		c0.2,0,0.4,0,0.6,0c0.4,0,0.7-0.3,0.7-0.7C556.2,180.5,555.9,180.2,555.5,180.2z"/>
	<path class="st1" d="M560.9,180.2h-0.2c0,0-0.1,0-0.2,0c0,0,0,0-0.1,0c-0.2,0-0.3,0-0.4,0c-0.4,0-0.7,0.3-0.7,0.7
		c0,0.4,0.3,0.7,0.7,0.7c0.1,0,0.3,0,0.4,0c0,0,0,0,0.1,0c0.1,0,0.2,0,0.2,0h0.2h0.1L560.9,180.2L560.9,180.2z"/>
	<polygon class="st1" points="561.8,180.2 561,180.2 561,181.6 561.8,181.6 562.6,181.6 562.6,180.2 	"/>
	<polygon class="st1" points="563.5,180.2 562.6,180.2 562.6,181.6 563.5,181.6 564.3,181.6 564.3,180.2 	"/>
	<polygon class="st1" points="565.1,180.2 564.3,180.2 564.3,181.6 565.1,181.6 565.9,181.6 565.9,180.2 	"/>
	<path class="st1" d="M566.8,180.2c-0.1,0-0.4,0-0.6,0c-0.1,0-0.1,0-0.1,0h-0.1H566h-0.1v1.4h0.1h0.1h0.1c0,0,0.1,0,0.1,0
		c0.2,0,0.4,0,0.6,0c0.4,0,0.7-0.3,0.7-0.7C567.5,180.5,567.2,180.2,566.8,180.2z"/>
	<path class="st1" d="M527.8,181.8c0.4,0,0.7,0.3,0.7,0.7c0,0.4-0.3,0.7-0.7,0.7s-0.7-0.3-0.7-0.7
		C527.2,182.1,527.5,181.8,527.8,181.8z"/>
	<path class="st1" d="M531.1,181.8c0.4,0,0.7,0.3,0.7,0.7c0,0.4-0.3,0.7-0.7,0.7s-0.7-0.3-0.7-0.7
		C530.4,182.1,530.7,181.8,531.1,181.8z"/>
	<path class="st1" d="M535.9,181.8c0.4,0,0.7,0.3,0.7,0.7c0,0.4-0.3,0.7-0.7,0.7s-0.7-0.3-0.7-0.7
		C535.3,182.1,535.6,181.8,535.9,181.8z"/>
	<path class="st1" d="M539.2,181.8c0.4,0,0.7,0.3,0.7,0.7c0,0.4-0.3,0.7-0.7,0.7c-0.4,0-0.7-0.3-0.7-0.7
		C538.5,182.1,538.8,181.8,539.2,181.8z"/>
	<path class="st1" d="M543.1,181.8H543c0,0-0.1,0-0.2,0c0,0,0,0-0.1,0c-0.2,0-0.3,0-0.4,0c-0.4,0-0.7,0.3-0.7,0.7
		c0,0.4,0.3,0.7,0.7,0.7c0.1,0,0.3,0,0.4,0c0,0,0,0,0.1,0c0.1,0,0.2,0,0.2,0h0.2h0.1L543.1,181.8L543.1,181.8z"/>
	<polygon class="st1" points="544,181.8 543.2,181.8 543.2,183.2 544,183.2 544.8,183.2 544.8,181.8 	"/>
	<path class="st1" d="M545.8,181.8c-0.1,0-0.4,0-0.6,0c-0.1,0-0.1,0-0.1,0H545h-0.1h-0.1v1.4h0.1h0.1h0.1c0,0,0.1,0,0.1,0
		c0.2,0,0.4,0,0.6,0c0.4,0,0.7-0.3,0.7-0.7C546.5,182.1,546.2,181.8,545.8,181.8z"/>
	<path class="st1" d="M550.5,181.8c0.4,0,0.7,0.3,0.7,0.7c0,0.4-0.3,0.7-0.7,0.7s-0.7-0.3-0.7-0.7
		C549.8,182.1,550.1,181.8,550.5,181.8z"/>
	<path class="st1" d="M555.4,181.8c0.4,0,0.7,0.3,0.7,0.7c0,0.4-0.3,0.7-0.7,0.7s-0.7-0.3-0.7-0.7
		C554.7,182.1,555,181.8,555.4,181.8z"/>
	<path class="st1" d="M558.6,181.8c0.4,0,0.7,0.3,0.7,0.7c0,0.4-0.3,0.7-0.7,0.7c-0.4,0-0.7-0.3-0.7-0.7
		C557.9,182.1,558.2,181.8,558.6,181.8z"/>
	<path class="st1" d="M562.5,181.8h-0.2c0,0-0.1,0-0.2,0c0,0,0,0-0.1,0c-0.2,0-0.3,0-0.4,0c-0.4,0-0.7,0.3-0.7,0.7
		c0,0.4,0.3,0.7,0.7,0.7c0.1,0,0.3,0,0.4,0c0,0,0,0,0.1,0c0.1,0,0.2,0,0.2,0h0.2h0.1L562.5,181.8L562.5,181.8z"/>
	<path class="st1" d="M563.6,181.8c-0.1,0-0.4,0-0.6,0c-0.1,0-0.1,0-0.1,0h-0.1h-0.1h-0.1v1.4h0.1h0.1h0.1c0,0,0.1,0,0.1,0
		c0.2,0,0.4,0,0.6,0c0.4,0,0.7-0.3,0.7-0.7C564.3,182.1,564,181.8,563.6,181.8z"/>
	<path class="st1" d="M566.7,181.8c0.4,0,0.7,0.3,0.7,0.7c0,0.4-0.3,0.7-0.7,0.7s-0.7-0.3-0.7-0.7
		C566,182.1,566.3,181.8,566.7,181.8z"/>
	<path class="st1" d="M527.8,183.4c0.4,0,0.7,0.3,0.7,0.7c0,0.4-0.3,0.7-0.7,0.7s-0.7-0.3-0.7-0.7
		C527.2,183.7,527.5,183.4,527.8,183.4z"/>
	<path class="st1" d="M532.7,183.4c0.4,0,0.7,0.3,0.7,0.7c0,0.4-0.3,0.7-0.7,0.7s-0.7-0.3-0.7-0.7
		C532,183.7,532.3,183.4,532.7,183.4z"/>
	<path class="st1" d="M537.6,183.4c0.4,0,0.7,0.3,0.7,0.7c0,0.4-0.3,0.7-0.7,0.7s-0.7-0.3-0.7-0.7
		C536.9,183.7,537.2,183.4,537.6,183.4z"/>
	<path class="st1" d="M543.1,183.4H543c0,0-0.1,0-0.2,0c0,0,0,0-0.1,0c-0.2,0-0.3,0-0.4,0c-0.4,0-0.7,0.3-0.7,0.7
		c0,0.4,0.3,0.7,0.7,0.7c0.1,0,0.3,0,0.4,0c0,0,0,0,0.1,0c0.1,0,0.2,0,0.2,0h0.2h0.1L543.1,183.4L543.1,183.4z"/>
	<path class="st1" d="M544.2,183.4c-0.1,0-0.4,0-0.6,0c-0.1,0-0.1,0-0.1,0h-0.1h-0.1h-0.1v1.4h0.1h0.1h0.1c0,0,0.1,0,0.1,0
		c0.2,0,0.4,0,0.6,0c0.4,0,0.7-0.3,0.7-0.7C544.8,183.7,544.5,183.4,544.2,183.4z"/>
	<path class="st1" d="M550.5,183.4c0.4,0,0.7,0.3,0.7,0.7c0,0.4-0.3,0.7-0.7,0.7s-0.7-0.3-0.7-0.7
		C549.8,183.7,550.1,183.4,550.5,183.4z"/>
	<path class="st1" d="M554.5,183.4h-0.2c0,0-0.1,0-0.2,0c0,0,0,0-0.1,0c-0.2,0-0.3,0-0.4,0c-0.4,0-0.7,0.3-0.7,0.7
		c0,0.4,0.3,0.7,0.7,0.7c0.1,0,0.3,0,0.4,0c0,0,0,0,0.1,0c0.1,0,0.2,0,0.2,0h0.2h0.1L554.5,183.4L554.5,183.4z"/>
	<polygon class="st1" points="555.4,183.4 554.6,183.4 554.6,184.8 555.4,184.8 556.2,184.8 556.2,183.4 	"/>
	<polygon class="st1" points="557,183.4 556.2,183.4 556.2,184.8 557,184.8 557.8,184.8 557.8,183.4 	"/>
	<polygon class="st1" points="558.6,183.4 557.8,183.4 557.8,184.8 558.6,184.8 559.4,184.8 559.4,183.4 	"/>
	<path class="st1" d="M560.3,183.4c-0.1,0-0.4,0-0.6,0c-0.1,0-0.1,0-0.1,0h-0.1h-0.1h-0.1v1.4h0.1h0.1h0.1c0,0,0.1,0,0.1,0
		c0.2,0,0.4,0,0.6,0c0.4,0,0.7-0.3,0.7-0.7C561,183.7,560.7,183.4,560.3,183.4z"/>
	<path class="st1" d="M564.2,183.4H564c0,0-0.1,0-0.2,0c0,0,0,0-0.1,0c-0.2,0-0.3,0-0.4,0c-0.4,0-0.7,0.3-0.7,0.7
		c0,0.4,0.3,0.7,0.7,0.7c0.1,0,0.3,0,0.4,0c0,0,0,0,0.1,0c0.1,0,0.2,0,0.2,0h0.2h0.1L564.2,183.4L564.2,183.4z"/>
	<path class="st1" d="M565.2,183.4c-0.1,0-0.4,0-0.6,0c-0.1,0-0.1,0-0.1,0h-0.1h-0.1h-0.1v1.4h0.1h0.1h0.1c0,0,0.1,0,0.1,0
		c0.2,0,0.4,0,0.6,0c0.4,0,0.7-0.3,0.7-0.7C565.9,183.7,565.6,183.4,565.2,183.4z"/>
	<path class="st1" d="M541.5,185h-0.2c0,0-0.1,0-0.2,0c0,0,0,0-0.1,0c-0.2,0-0.3,0-0.4,0c-0.4,0-0.7,0.3-0.7,0.7
		c0,0.4,0.3,0.7,0.7,0.7c0.1,0,0.3,0,0.4,0c0,0,0,0,0.1,0c0.1,0,0.2,0,0.2,0h0.2h0.1L541.5,185L541.5,185z"/>
	<polygon class="st1" points="542.4,185 541.6,185 541.6,186.4 542.4,186.4 543.2,186.4 543.2,185 	"/>
	<polygon class="st1" points="544,185 543.2,185 543.2,186.4 544,186.4 544.8,186.4 544.8,185 	"/>
	<polygon class="st1" points="545.6,185 544.8,185 544.8,186.4 545.6,186.4 546.5,186.4 546.5,185 	"/>
	<polygon class="st1" points="547.3,185 546.5,185 546.5,186.4 547.3,186.4 548.1,186.4 548.1,185 	"/>
	<path class="st1" d="M549,185c-0.1,0-0.4,0-0.6,0c-0.1,0-0.1,0-0.1,0h-0.1h-0.1h-0.1v1.4h0.1h0.1h0.1c0,0,0.1,0,0.1,0
		c0.2,0,0.4,0,0.6,0c0.4,0,0.7-0.3,0.7-0.7C549.7,185.4,549.4,185,549,185z"/>
	<path class="st1" d="M553.7,185c0.4,0,0.7,0.3,0.7,0.7c0,0.4-0.3,0.7-0.7,0.7s-0.7-0.3-0.7-0.7C553.1,185.4,553.4,185,553.7,185z"
		/>
	<path class="st1" d="M560.2,185c0.4,0,0.7,0.3,0.7,0.7c0,0.4-0.3,0.7-0.7,0.7c-0.4,0-0.7-0.3-0.7-0.7
		C559.5,185.4,559.8,185,560.2,185z"/>
	<path class="st1" d="M564.2,185H564c0,0-0.1,0-0.2,0c0,0,0,0-0.1,0c-0.2,0-0.3,0-0.4,0c-0.4,0-0.7,0.3-0.7,0.7
		c0,0.4,0.3,0.7,0.7,0.7c0.1,0,0.3,0,0.4,0c0,0,0,0,0.1,0c0.1,0,0.2,0,0.2,0h0.2h0.1L564.2,185L564.2,185z"/>
	<path class="st1" d="M565.2,185c-0.1,0-0.4,0-0.6,0c-0.1,0-0.1,0-0.1,0h-0.1h-0.1h-0.1v1.4h0.1h0.1h0.1c0,0,0.1,0,0.1,0
		c0.2,0,0.4,0,0.6,0c0.4,0,0.7-0.3,0.7-0.7C565.9,185.4,565.6,185,565.2,185z"/>
	<path class="st1" d="M541.5,186.7h-0.2c0,0-0.1,0-0.2,0c0,0,0,0-0.1,0c-0.2,0-0.3,0-0.4,0c-0.4,0-0.7,0.3-0.7,0.7
		c0,0.4,0.3,0.7,0.7,0.7c0.1,0,0.3,0,0.4,0c0,0,0,0,0.1,0c0.1,0,0.2,0,0.2,0h0.2h0.1L541.5,186.7L541.5,186.7z"/>
	<path class="st1" d="M542.5,186.7c-0.1,0-0.4,0-0.6,0c-0.1,0-0.1,0-0.1,0h-0.1h-0.1h-0.1v1.4h0.1h0.1h0.1c0,0,0.1,0,0.1,0
		c0.2,0,0.4,0,0.6,0c0.4,0,0.7-0.3,0.7-0.7C543.2,187,542.9,186.7,542.5,186.7z"/>
	<path class="st1" d="M545.6,186.7c0.4,0,0.7,0.3,0.7,0.7c0,0.4-0.3,0.7-0.7,0.7c-0.4,0-0.7-0.3-0.7-0.7
		C545,187,545.3,186.7,545.6,186.7z"/>
	<path class="st1" d="M553.7,186.7c0.4,0,0.7,0.3,0.7,0.7c0,0.4-0.3,0.7-0.7,0.7s-0.7-0.3-0.7-0.7
		C553.1,187,553.4,186.7,553.7,186.7z"/>
	<path class="st1" d="M557,186.7c0.4,0,0.7,0.3,0.7,0.7c0,0.4-0.3,0.7-0.7,0.7s-0.7-0.3-0.7-0.7C556.3,187,556.6,186.7,557,186.7z"
		/>
	<path class="st1" d="M560.2,186.7c0.4,0,0.7,0.3,0.7,0.7c0,0.4-0.3,0.7-0.7,0.7c-0.4,0-0.7-0.3-0.7-0.7
		C559.5,187,559.8,186.7,560.2,186.7z"/>
	<path class="st1" d="M566.7,186.7c0.4,0,0.7,0.3,0.7,0.7c0,0.4-0.3,0.7-0.7,0.7s-0.7-0.3-0.7-0.7C566,187,566.3,186.7,566.7,186.7z
		"/>
	<path class="st1" d="M541.5,188.3h-0.2c0,0-0.1,0-0.2,0c0,0,0,0-0.1,0c-0.2,0-0.3,0-0.4,0c-0.4,0-0.7,0.3-0.7,0.7
		c0,0.4,0.3,0.7,0.7,0.7c0.1,0,0.3,0,0.4,0c0,0,0,0,0.1,0c0.1,0,0.2,0,0.2,0h0.2h0.1L541.5,188.3L541.5,188.3z"/>
	<path class="st1" d="M542.5,188.3c-0.1,0-0.4,0-0.6,0c-0.1,0-0.1,0-0.1,0h-0.1h-0.1h-0.1v1.4h0.1h0.1h0.1c0,0,0.1,0,0.1,0
		c0.2,0,0.4,0,0.6,0c0.4,0,0.7-0.3,0.7-0.7C543.2,188.6,542.9,188.3,542.5,188.3z"/>
	<path class="st1" d="M547.3,188.3c0.4,0,0.7,0.3,0.7,0.7c0,0.4-0.3,0.7-0.7,0.7s-0.7-0.3-0.7-0.7
		C546.6,188.6,546.9,188.3,547.3,188.3z"/>
	<path class="st1" d="M551.2,188.3h-0.2c0,0-0.1,0-0.2,0c0,0,0,0-0.1,0c-0.2,0-0.3,0-0.4,0c-0.4,0-0.7,0.3-0.7,0.7
		c0,0.4,0.3,0.7,0.7,0.7c0.1,0,0.3,0,0.4,0c0,0,0,0,0.1,0c0.1,0,0.2,0,0.2,0h0.2h0.1L551.2,188.3L551.2,188.3z"/>
	<polygon class="st1" points="552.1,188.3 551.3,188.3 551.3,189.7 552.1,189.7 552.9,189.7 552.9,188.3 	"/>
	<path class="st1" d="M553.9,188.3c-0.1,0-0.4,0-0.6,0c-0.1,0-0.1,0-0.1,0h-0.1H553h-0.1v1.4h0.1h0.1h0.1c0,0,0.1,0,0.1,0
		c0.2,0,0.4,0,0.6,0c0.4,0,0.7-0.3,0.7-0.7C554.6,188.6,554.2,188.3,553.9,188.3z"/>
	<path class="st1" d="M560.2,188.3c0.4,0,0.7,0.3,0.7,0.7c0,0.4-0.3,0.7-0.7,0.7c-0.4,0-0.7-0.3-0.7-0.7
		C559.5,188.6,559.8,188.3,560.2,188.3z"/>
	<path class="st1" d="M565.8,188.3h-0.2c0,0-0.1,0-0.2,0c0,0,0,0-0.1,0c-0.2,0-0.3,0-0.4,0c-0.4,0-0.7,0.3-0.7,0.7
		c0,0.4,0.3,0.7,0.7,0.7c0.1,0,0.3,0,0.4,0c0,0,0,0,0.1,0c0.1,0,0.2,0,0.2,0h0.2h0.1L565.8,188.3L565.8,188.3z"/>
	<path class="st1" d="M566.8,188.3c-0.1,0-0.4,0-0.6,0c-0.1,0-0.1,0-0.1,0h-0.1H566h-0.1v1.4h0.1h0.1h0.1c0,0,0.1,0,0.1,0
		c0.2,0,0.4,0,0.6,0c0.4,0,0.7-0.3,0.7-0.7C567.5,188.6,567.2,188.3,566.8,188.3z"/>
	<path class="st1" d="M540.8,189.9c0.4,0,0.7,0.3,0.7,0.7c0,0.4-0.3,0.7-0.7,0.7c-0.4,0-0.7-0.3-0.7-0.7
		C540.1,190.2,540.4,189.9,540.8,189.9z"/>
	<path class="st1" d="M544,189.9c0.4,0,0.7,0.3,0.7,0.7c0,0.4-0.3,0.7-0.7,0.7c-0.4,0-0.7-0.3-0.7-0.7
		C543.3,190.2,543.7,189.9,544,189.9z"/>
	<path class="st1" d="M548,189.9h-0.2c0,0-0.1,0-0.2,0c0,0,0,0-0.1,0c-0.2,0-0.3,0-0.4,0c-0.4,0-0.7,0.3-0.7,0.7
		c0,0.4,0.3,0.7,0.7,0.7c0.1,0,0.3,0,0.4,0c0,0,0,0,0.1,0c0.1,0,0.2,0,0.2,0h0.2h0.1L548,189.9L548,189.9z"/>
	<polygon class="st1" points="548.9,189.9 548.1,189.9 548.1,191.3 548.9,191.3 549.7,191.3 549.7,189.9 	"/>
	<polygon class="st1" points="550.5,189.9 549.7,189.9 549.7,191.3 550.5,191.3 551.3,191.3 551.3,189.9 	"/>
	<polygon class="st1" points="552.1,189.9 551.3,189.9 551.3,191.3 552.1,191.3 552.9,191.3 552.9,189.9 	"/>
	<polygon class="st1" points="553.7,189.9 552.9,189.9 552.9,191.3 553.7,191.3 554.6,191.3 554.6,189.9 	"/>
	<polygon class="st1" points="555.4,189.9 554.6,189.9 554.6,191.3 555.4,191.3 556.2,191.3 556.2,189.9 	"/>
	<polygon class="st1" points="557,189.9 556.2,189.9 556.2,191.3 557,191.3 557.8,191.3 557.8,189.9 	"/>
	<polygon class="st1" points="558.6,189.9 557.8,189.9 557.8,191.3 558.6,191.3 559.4,191.3 559.4,189.9 	"/>
	<path class="st1" d="M560.3,189.9c-0.1,0-0.4,0-0.6,0c-0.1,0-0.1,0-0.1,0h-0.1h-0.1h-0.1v1.4h0.1h0.1h0.1c0,0,0.1,0,0.1,0
		c0.2,0,0.4,0,0.6,0c0.4,0,0.7-0.3,0.7-0.7C561,190.2,560.7,189.9,560.3,189.9z"/>
	<path class="st1" d="M565.8,189.9h-0.2c0,0-0.1,0-0.2,0c0,0,0,0-0.1,0c-0.2,0-0.3,0-0.4,0c-0.4,0-0.7,0.3-0.7,0.7
		c0,0.4,0.3,0.7,0.7,0.7c0.1,0,0.3,0,0.4,0c0,0,0,0,0.1,0c0.1,0,0.2,0,0.2,0h0.2h0.1L565.8,189.9L565.8,189.9z"/>
	<path class="st1" d="M566.8,189.9c-0.1,0-0.4,0-0.6,0c-0.1,0-0.1,0-0.1,0h-0.1H566h-0.1v1.4h0.1h0.1h0.1c0,0,0.1,0,0.1,0
		c0.2,0,0.4,0,0.6,0c0.4,0,0.7-0.3,0.7-0.7C567.5,190.2,567.2,189.9,566.8,189.9z"/>
	<path class="st1" d="M540.8,191.5c0.4,0,0.7,0.3,0.7,0.7c0,0.4-0.3,0.7-0.7,0.7c-0.4,0-0.7-0.3-0.7-0.7
		C540.1,191.8,540.4,191.5,540.8,191.5z"/>
	<path class="st1" d="M544,191.5c0.4,0,0.7,0.3,0.7,0.7c0,0.4-0.3,0.7-0.7,0.7c-0.4,0-0.7-0.3-0.7-0.7
		C543.3,191.8,543.7,191.5,544,191.5z"/>
	<path class="st1" d="M551.2,191.5h-0.2c0,0-0.1,0-0.2,0c0,0,0,0-0.1,0c-0.2,0-0.3,0-0.4,0c-0.4,0-0.7,0.3-0.7,0.7
		c0,0.4,0.3,0.7,0.7,0.7c0.1,0,0.3,0,0.4,0c0,0,0,0,0.1,0c0.1,0,0.2,0,0.2,0h0.2h0.1L551.2,191.5L551.2,191.5z"/>
	<path class="st1" d="M552.2,191.5c-0.1,0-0.4,0-0.6,0c-0.1,0-0.1,0-0.1,0h-0.1h-0.1h-0.1v1.4h0.1h0.1h0.1c0,0,0.1,0,0.1,0
		c0.2,0,0.4,0,0.6,0c0.4,0,0.7-0.3,0.7-0.7C552.9,191.8,552.6,191.5,552.2,191.5z"/>
	<path class="st1" d="M557,191.5c0.4,0,0.7,0.3,0.7,0.7c0,0.4-0.3,0.7-0.7,0.7s-0.7-0.3-0.7-0.7C556.3,191.8,556.6,191.5,557,191.5z
		"/>
	<path class="st1" d="M565.8,191.5h-0.2c0,0-0.1,0-0.2,0c0,0,0,0-0.1,0c-0.2,0-0.3,0-0.4,0c-0.4,0-0.7,0.3-0.7,0.7
		c0,0.4,0.3,0.7,0.7,0.7c0.1,0,0.3,0,0.4,0c0,0,0,0,0.1,0c0.1,0,0.2,0,0.2,0h0.2h0.1L565.8,191.5L565.8,191.5z"/>
	<path class="st1" d="M566.8,191.5c-0.1,0-0.4,0-0.6,0c-0.1,0-0.1,0-0.1,0h-0.1H566h-0.1v1.4h0.1h0.1h0.1c0,0,0.1,0,0.1,0
		c0.2,0,0.4,0,0.6,0c0.4,0,0.7-0.3,0.7-0.7C567.5,191.8,567.2,191.5,566.8,191.5z"/>
	<path class="st1" d="M543.1,193.1H543c0,0-0.1,0-0.2,0c0,0,0,0-0.1,0c-0.2,0-0.3,0-0.4,0c-0.4,0-0.7,0.3-0.7,0.7
		c0,0.4,0.3,0.7,0.7,0.7c0.1,0,0.3,0,0.4,0c0,0,0,0,0.1,0c0.1,0,0.2,0,0.2,0h0.2h0.1L543.1,193.1L543.1,193.1z"/>
	<path class="st1" d="M544.2,193.1c-0.1,0-0.4,0-0.6,0c-0.1,0-0.1,0-0.1,0h-0.1h-0.1h-0.1v1.4h0.1h0.1h0.1c0,0,0.1,0,0.1,0
		c0.2,0,0.4,0,0.6,0c0.4,0,0.7-0.3,0.7-0.7C544.8,193.4,544.5,193.1,544.2,193.1z"/>
	<path class="st1" d="M547.3,193.1c0.4,0,0.7,0.3,0.7,0.7c0,0.4-0.3,0.7-0.7,0.7s-0.7-0.3-0.7-0.7
		C546.6,193.4,546.9,193.1,547.3,193.1z"/>
	<path class="st1" d="M550.5,193.1c0.4,0,0.7,0.3,0.7,0.7c0,0.4-0.3,0.7-0.7,0.7s-0.7-0.3-0.7-0.7
		C549.8,193.4,550.1,193.1,550.5,193.1z"/>
	<path class="st1" d="M555.4,193.1c0.4,0,0.7,0.3,0.7,0.7c0,0.4-0.3,0.7-0.7,0.7s-0.7-0.3-0.7-0.7
		C554.7,193.4,555,193.1,555.4,193.1z"/>
	<path class="st1" d="M560.9,193.1h-0.2c0,0-0.1,0-0.2,0c0,0,0,0-0.1,0c-0.2,0-0.3,0-0.4,0c-0.4,0-0.7,0.3-0.7,0.7
		c0,0.4,0.3,0.7,0.7,0.7c0.1,0,0.3,0,0.4,0c0,0,0,0,0.1,0c0.1,0,0.2,0,0.2,0h0.2h0.1L560.9,193.1L560.9,193.1z"/>
	<polygon class="st1" points="561.8,193.1 561,193.1 561,194.5 561.8,194.5 562.6,194.5 562.6,193.1 	"/>
	<polygon class="st1" points="563.5,193.1 562.6,193.1 562.6,194.5 563.5,194.5 564.3,194.5 564.3,193.1 	"/>
	<polygon class="st1" points="565.1,193.1 564.3,193.1 564.3,194.5 565.1,194.5 565.9,194.5 565.9,193.1 	"/>
	<path class="st1" d="M566.8,193.1c-0.1,0-0.4,0-0.6,0c-0.1,0-0.1,0-0.1,0h-0.1H566h-0.1v1.4h0.1h0.1h0.1c0,0,0.1,0,0.1,0
		c0.2,0,0.4,0,0.6,0c0.4,0,0.7-0.3,0.7-0.7C567.5,193.4,567.2,193.1,566.8,193.1z"/>
	<path class="st1" d="M544,194.8c0.4,0,0.7,0.3,0.7,0.7c0,0.4-0.3,0.7-0.7,0.7c-0.4,0-0.7-0.3-0.7-0.7
		C543.3,195.1,543.7,194.8,544,194.8z"/>
	<path class="st1" d="M550.5,194.8c0.4,0,0.7,0.3,0.7,0.7c0,0.4-0.3,0.7-0.7,0.7s-0.7-0.3-0.7-0.7
		C549.8,195.1,550.1,194.8,550.5,194.8z"/>
	<path class="st1" d="M559.3,194.8h-0.2c0,0-0.1,0-0.2,0c0,0,0,0-0.1,0c-0.2,0-0.3,0-0.4,0c-0.4,0-0.7,0.3-0.7,0.7
		c0,0.4,0.3,0.7,0.7,0.7c0.1,0,0.3,0,0.4,0c0,0,0,0,0.1,0c0.1,0,0.2,0,0.2,0h0.2h0.1L559.3,194.8L559.3,194.8z"/>
	<path class="st1" d="M560.3,194.8c-0.1,0-0.4,0-0.6,0c-0.1,0-0.1,0-0.1,0h-0.1h-0.1h-0.1v1.4h0.1h0.1h0.1c0,0,0.1,0,0.1,0
		c0.2,0,0.4,0,0.6,0c0.4,0,0.7-0.3,0.7-0.7C561,195.1,560.7,194.8,560.3,194.8z"/>
	<path class="st1" d="M564.2,194.8H564c0,0-0.1,0-0.2,0c0,0,0,0-0.1,0c-0.2,0-0.3,0-0.4,0c-0.4,0-0.7,0.3-0.7,0.7
		c0,0.4,0.3,0.7,0.7,0.7c0.1,0,0.3,0,0.4,0c0,0,0,0,0.1,0c0.1,0,0.2,0,0.2,0h0.2h0.1L564.2,194.8L564.2,194.8z"/>
	<polygon class="st1" points="565.1,194.8 564.3,194.8 564.3,196.1 565.1,196.1 565.9,196.1 565.9,194.8 	"/>
	<path class="st1" d="M566.8,194.8c-0.1,0-0.4,0-0.6,0c-0.1,0-0.1,0-0.1,0h-0.1H566h-0.1v1.4h0.1h0.1h0.1c0,0,0.1,0,0.1,0
		c0.2,0,0.4,0,0.6,0c0.4,0,0.7-0.3,0.7-0.7C567.5,195.1,567.2,194.8,566.8,194.8z"/>
	<path class="st1" d="M541.5,196.4h-0.2c0,0-0.1,0-0.2,0c0,0,0,0-0.1,0c-0.2,0-0.3,0-0.4,0c-0.4,0-0.7,0.3-0.7,0.7
		c0,0.4,0.3,0.7,0.7,0.7c0.1,0,0.3,0,0.4,0c0,0,0,0,0.1,0c0.1,0,0.2,0,0.2,0h0.2h0.1L541.5,196.4L541.5,196.4z"/>
	<path class="st1" d="M542.5,196.4c-0.1,0-0.4,0-0.6,0c-0.1,0-0.1,0-0.1,0h-0.1h-0.1h-0.1v1.4h0.1h0.1h0.1c0,0,0.1,0,0.1,0
		c0.2,0,0.4,0,0.6,0c0.4,0,0.7-0.3,0.7-0.7C543.2,196.7,542.9,196.4,542.5,196.4z"/>
	<path class="st1" d="M549.6,196.4h-0.2c0,0-0.1,0-0.2,0c0,0,0,0-0.1,0c-0.2,0-0.3,0-0.4,0c-0.4,0-0.7,0.3-0.7,0.7
		c0,0.4,0.3,0.7,0.7,0.7c0.1,0,0.3,0,0.4,0c0,0,0,0,0.1,0c0.1,0,0.2,0,0.2,0h0.2h0.1L549.6,196.4L549.6,196.4z"/>
	<path class="st1" d="M550.6,196.4c-0.1,0-0.4,0-0.6,0c-0.1,0-0.1,0-0.1,0h-0.1h-0.1h-0.1v1.4h0.1h0.1h0.1c0,0,0.1,0,0.1,0
		c0.2,0,0.4,0,0.6,0c0.4,0,0.7-0.3,0.7-0.7C551.3,196.7,551,196.4,550.6,196.4z"/>
	<path class="st1" d="M554.5,196.4h-0.2c0,0-0.1,0-0.2,0c0,0,0,0-0.1,0c-0.2,0-0.3,0-0.4,0c-0.4,0-0.7,0.3-0.7,0.7
		c0,0.4,0.3,0.7,0.7,0.7c0.1,0,0.3,0,0.4,0c0,0,0,0,0.1,0c0.1,0,0.2,0,0.2,0h0.2h0.1L554.5,196.4L554.5,196.4z"/>
	<path class="st1" d="M555.5,196.4c-0.1,0-0.4,0-0.6,0c-0.1,0-0.1,0-0.1,0h-0.1h-0.1h-0.1v1.4h0.1h0.1h0.1c0,0,0.1,0,0.1,0
		c0.2,0,0.4,0,0.6,0c0.4,0,0.7-0.3,0.7-0.7C556.2,196.7,555.9,196.4,555.5,196.4z"/>
	<path class="st1" d="M561.8,196.4c0.4,0,0.7,0.3,0.7,0.7c0,0.4-0.3,0.7-0.7,0.7c-0.4,0-0.7-0.3-0.7-0.7
		C561.1,196.7,561.5,196.4,561.8,196.4z"/>
	<path class="st1" d="M566.7,196.4c0.4,0,0.7,0.3,0.7,0.7c0,0.4-0.3,0.7-0.7,0.7s-0.7-0.3-0.7-0.7
		C566,196.7,566.3,196.4,566.7,196.4z"/>
	<g>
		<path class="st1" d="M534.5,157.4h-3.6c-2.1,0-3.9,1.7-3.9,3.8v3.7c0,2.1,1.7,3.8,3.9,3.8l7.5,0v-7.5
			C538.4,159.1,536.6,157.4,534.5,157.4z M536.7,167l-5.8,0c-1.2,0-2.2-1-2.2-2.1v-3.7c0-1.2,1-2.1,2.2-2.1h3.6c1.2,0,2.2,1,2.2,2.1
			V167z"/>
		<rect x="530.3" y="160.6" class="st1" width="4.9" height="4.9"/>
	</g>
	<g>
		<path class="st1" d="M563.6,157.4H560c-2.1,0-3.9,1.7-3.9,3.8v7.5l7.5,0c2.1,0,3.9-1.7,3.9-3.8v-3.7
			C567.5,159.1,565.8,157.4,563.6,157.4z M565.8,164.9c0,1.2-1,2.1-2.2,2.1l-5.8,0v-5.8c0-1.2,1-2.1,2.2-2.1h3.6
			c1.2,0,2.2,1,2.2,2.1V164.9z"/>
		<rect x="559.4" y="160.6" class="st1" width="4.9" height="4.9"/>
	</g>
	<g>
		<path class="st1" d="M530.9,186.5c-2.1,0-3.9,1.7-3.9,3.8v3.7c0,2.1,1.7,3.8,3.9,3.8h3.6c2.1,0,3.9-1.7,3.9-3.8v-7.5L530.9,186.5z
			 M536.7,194c0,1.2-1,2.1-2.2,2.1h-3.6c-1.2,0-2.2-1-2.2-2.1v-3.7c0-1.2,1-2.1,2.2-2.1l5.8,0V194z"/>
		<rect x="530.3" y="189.8" class="st1" width="4.9" height="4.9"/>
	</g>
</g>
<text transform="matrix(1 0 0 1 434.2048 179.9744)" class="st7 st12 st13">SCAN RIGHT NOW</text>
<polygon class="st14" points="382.7,0 0,241.5 374.4,0 "/>
<g>
	<g>
		<g>
			<path class="st15" d="M82.9,103.8v3.5h-0.7v-8.6h2.9c0.9,0,1.6,0.2,2.1,0.7c0.5,0.4,0.8,1.1,0.8,1.9c0,0.8-0.2,1.4-0.7,1.9
				c-0.5,0.4-1.2,0.7-2.2,0.7H82.9L82.9,103.8z M82.9,103.2h2.2c0.7,0,1.2-0.2,1.6-0.5c0.4-0.3,0.6-0.8,0.6-1.4
				c0-0.6-0.2-1.1-0.5-1.4c-0.4-0.4-0.9-0.5-1.6-0.5h-2.2L82.9,103.2L82.9,103.2z"/>
			<path class="st15" d="M93.5,104.9h-3.9l-0.9,2.4H88l3.3-8.6h0.7l3.3,8.6h-0.7L93.5,104.9z M89.8,104.3h3.4l-1.7-4.7L89.8,104.3z"
				/>
			<path class="st15" d="M97.1,103.8v3.5h-0.7v-8.6h2.9c0.9,0,1.6,0.2,2.1,0.7c0.5,0.4,0.8,1.1,0.8,1.9c0,0.8-0.2,1.4-0.7,1.9
				c-0.5,0.4-1.2,0.7-2.2,0.7H97.1L97.1,103.8z M97.1,103.2h2.2c0.7,0,1.2-0.2,1.6-0.5c0.4-0.3,0.6-0.8,0.6-1.4
				c0-0.6-0.2-1.1-0.5-1.4c-0.4-0.4-0.9-0.5-1.6-0.5h-2.2L97.1,103.2L97.1,103.2z"/>
			<path class="st15" d="M108.6,103.2h-4v3.5h4.6v0.6h-5.3v-8.6h5.3v0.6h-4.6v3.3h4V103.2z"/>
			<path class="st15" d="M114,103.8h-2.5v3.6h-0.7v-8.6h2.8c0.9,0,1.6,0.2,2.2,0.7c0.5,0.4,0.8,1.1,0.8,1.9c0,0.5-0.2,1-0.5,1.5
				c-0.3,0.4-0.7,0.7-1.3,0.9l2.2,3.7v0.1h-0.8L114,103.8z M111.4,103.1h2.2c0.6,0,1.1-0.2,1.5-0.5c0.4-0.4,0.6-0.8,0.6-1.3
				c0-0.6-0.2-1.1-0.6-1.4c-0.4-0.3-0.9-0.5-1.6-0.5h-2V103.1L111.4,103.1z"/>
			<path class="st15" d="M122.7,102.7c-0.3-0.4-0.6-0.8-0.7-1.1c-0.1-0.3-0.2-0.6-0.2-1c0-0.6,0.2-1.1,0.5-1.4
				c0.4-0.4,0.8-0.5,1.4-0.5c0.5,0,1,0.1,1.3,0.5c0.3,0.3,0.5,0.7,0.5,1.2c0,0.6-0.3,1.1-1,1.7l-0.9,0.7l2.4,2.8
				c0.4-0.6,0.5-1.2,0.5-2h0.7c0,1-0.2,1.8-0.7,2.5l1.2,1.4h-0.8l-0.7-0.9c-0.3,0.3-0.7,0.5-1.1,0.7s-0.8,0.3-1.3,0.3
				c-0.8,0-1.5-0.2-1.9-0.6c-0.5-0.4-0.7-1-0.7-1.7c0-0.4,0.1-0.8,0.4-1.2C121.6,103.6,122,103.1,122.7,102.7L122.7,102.7z
				 M123.6,106.9c0.4,0,0.7-0.1,1-0.2c0.3-0.1,0.6-0.4,0.9-0.6l-2.4-2.8l-0.1-0.1l-0.3,0.2c-0.8,0.6-1.2,1.2-1.2,1.8
				c0,0.5,0.2,0.9,0.5,1.2C122.5,106.7,123,106.9,123.6,106.9z M122.4,100.6c0,0.5,0.3,1,0.8,1.7l0.8-0.6c0.2-0.2,0.4-0.4,0.6-0.6
				c0.2-0.2,0.2-0.5,0.2-0.8c0-0.3-0.1-0.6-0.3-0.8c-0.2-0.2-0.5-0.3-0.8-0.3c-0.4,0-0.7,0.1-0.9,0.4
				C122.5,99.9,122.4,100.2,122.4,100.6z"/>
			<path class="st15" d="M131.7,107.3v-8.6h2.5c0.9,0,1.6,0.2,2.1,0.6c0.5,0.4,0.7,0.9,0.7,1.7c0,0.4-0.1,0.8-0.4,1.2
				c-0.2,0.3-0.6,0.6-1,0.7c0.5,0.1,0.9,0.4,1.2,0.7c0.3,0.4,0.4,0.8,0.4,1.3c0,0.8-0.2,1.3-0.7,1.8c-0.5,0.4-1.2,0.6-2,0.6H131.7z
				 M132.5,102.6h2c0.6,0,1.1-0.1,1.4-0.4c0.3-0.3,0.5-0.7,0.5-1.2c0-0.5-0.2-1-0.5-1.2c-0.3-0.3-0.9-0.4-1.6-0.4h-1.8V102.6z
				 M132.5,103.2v3.5h2.2c0.6,0,1.1-0.1,1.5-0.5s0.5-0.7,0.5-1.3c0-0.5-0.2-1-0.5-1.3c-0.4-0.3-0.8-0.5-1.4-0.5H132.5z"/>
			<path class="st15" d="M145.5,103.5c0,0.8-0.1,1.5-0.4,2.1c-0.3,0.6-0.7,1-1.2,1.4c-0.5,0.3-1.1,0.5-1.8,0.5c-1,0-1.8-0.4-2.4-1.1
				s-0.9-1.7-0.9-2.9v-0.9c0-0.8,0.1-1.5,0.4-2.1c0.3-0.6,0.7-1.1,1.2-1.4c0.5-0.3,1.1-0.5,1.8-0.5c0.7,0,1.2,0.2,1.7,0.5
				c0.5,0.3,0.9,0.8,1.2,1.3c0.3,0.6,0.4,1.3,0.4,2L145.5,103.5L145.5,103.5z M144.8,102.6c0-1-0.2-1.8-0.7-2.4s-1.1-0.9-1.9-0.9
				c-0.8,0-1.4,0.3-1.9,0.9c-0.5,0.6-0.7,1.4-0.7,2.5v0.9c0,1,0.2,1.8,0.7,2.4c0.5,0.6,1.1,0.9,1.9,0.9c0.8,0,1.5-0.3,1.9-0.9
				c0.5-0.6,0.7-1.4,0.7-2.5L144.8,102.6L144.8,102.6z"/>
			<path class="st15" d="M151.8,104.9h-3.9l-0.9,2.4h-0.8l3.3-8.6h0.7l3.3,8.6h-0.7L151.8,104.9z M148.2,104.3h3.4l-1.7-4.7
				L148.2,104.3z"/>
			<path class="st15" d="M158,103.8h-2.5v3.6h-0.7v-8.6h2.8c0.9,0,1.6,0.2,2.2,0.7c0.5,0.4,0.8,1.1,0.8,1.9c0,0.5-0.2,1-0.5,1.5
				c-0.3,0.4-0.7,0.7-1.3,0.9l2.2,3.7v0.1h-0.8L158,103.8z M155.5,103.1h2.2c0.6,0,1.1-0.2,1.5-0.5c0.4-0.4,0.6-0.8,0.6-1.3
				c0-0.6-0.2-1.1-0.6-1.4c-0.4-0.3-0.9-0.5-1.6-0.5h-2V103.1z"/>
			<path class="st15" d="M162.4,107.3v-8.6h2.4c0.7,0,1.3,0.2,1.9,0.5c0.6,0.3,1,0.8,1.3,1.4c0.3,0.6,0.5,1.3,0.5,2v0.8
				c0,0.8-0.1,1.4-0.5,2c-0.3,0.6-0.7,1-1.3,1.4c-0.6,0.3-1.2,0.5-1.9,0.5H162.4z M163.2,99.4v7.4h1.6c0.9,0,1.6-0.3,2.2-0.9
				c0.5-0.6,0.8-1.4,0.8-2.4v-0.7c0-1-0.3-1.8-0.8-2.4c-0.5-0.6-1.3-0.9-2.1-0.9H163.2z"/>
		</g>
	</g>
	<g>
		<path class="st5" d="M85.8,87.1h-7.6v7.8h-3.9V75.8h12.4V79h-8.5v4.9h7.6V87.1z"/>
		<path class="st5" d="M100.5,87.1h-7.6v7.8H89V75.8h12.4V79h-8.5v4.9h7.6V87.1z"/>
		<path class="st5" d="M119.4,85.8c0,1.9-0.3,3.5-1,4.9s-1.6,2.5-2.8,3.3c-1.2,0.8-2.7,1.2-4.3,1.2c-1.6,0-3-0.4-4.2-1.1
			c-1.2-0.8-2.2-1.9-2.9-3.3c-0.7-1.4-1-3-1-4.9v-0.9c0-1.9,0.3-3.5,1-5c0.7-1.4,1.6-2.5,2.9-3.3s2.7-1.1,4.2-1.1
			c1.6,0,3,0.4,4.2,1.1c1.2,0.8,2.2,1.9,2.9,3.3c0.7,1.4,1,3.1,1,4.9L119.4,85.8L119.4,85.8z M115.4,84.9c0-2-0.4-3.5-1.1-4.6
			c-0.7-1-1.7-1.6-3.1-1.6c-1.3,0-2.3,0.5-3.1,1.5c-0.7,1-1.1,2.5-1.1,4.5v0.9c0,1.9,0.4,3.5,1.1,4.5c0.7,1.1,1.7,1.6,3.1,1.6
			c1.3,0,2.3-0.5,3-1.6s1.1-2.5,1.1-4.5L115.4,84.9L115.4,84.9z"/>
		<path class="st5" d="M136.7,75.8v12.6c0,2.1-0.7,3.7-2,5c-1.3,1.2-3.1,1.8-5.4,1.8c-2.2,0-4-0.6-5.3-1.8c-1.3-1.2-2-2.8-2-4.9
			V75.8h3.9v12.6c0,1.3,0.3,2.2,0.9,2.7c0.6,0.6,1.4,0.9,2.5,0.9c2.2,0,3.3-1.2,3.4-3.5V75.8L136.7,75.8L136.7,75.8z"/>
		<path class="st5" d="M147,87.9h-3.1v7H140V75.8h7.1c2.2,0,4,0.5,5.2,1.5c1.2,1,1.8,2.4,1.8,4.3c0,1.3-0.3,2.4-0.8,3.3
			s-1.4,1.6-2.6,2.1l4.1,7.8v0.2h-4.2L147,87.9z M143.9,84.7h3.2c1,0,1.8-0.2,2.3-0.7c0.5-0.5,0.8-1.2,0.8-2.1
			c0-0.9-0.3-1.6-0.8-2.1c-0.5-0.5-1.3-0.8-2.4-0.8h-3.2L143.9,84.7L143.9,84.7z"/>
		<path class="st5" d="M163.1,84.4l4-8.6h4.3L165.1,88v6.9h-4V88l-6.3-12.2h4.3L163.1,84.4z"/>
	</g>
	<g class="st16">
		<polygon class="st5" points="51.1,66.1 33.6,71.8 33.1,62.6 42.4,59.6 		"/>
		<polygon class="st5" points="51.6,75.4 43.1,78.1 42.6,69.1 51.1,66.4 		"/>
		<polygon class="st5" points="34.2,89.1 25.2,92 24.3,75.4 32.8,62.9 		"/>
		<polygon class="st5" points="42.2,86.8 42.7,96.6 34.1,99.4 25.2,92.3 		"/>
		<polygon class="st5" points="25.8,114.5 43.4,108.8 43.8,118 34.6,121 		"/>
		<polygon class="st5" points="25.3,105.2 33.8,102.5 34.3,111.5 25.8,114.2 		"/>
		<polygon class="st5" points="42.5,86.7 51.3,92.5 52.1,106.3 44.1,117.8 		"/>
	</g>
	<g>
		<polygon class="st17" points="50.2,65.5 32.7,71.2 32.2,62 41.5,59 		"/>
		<polygon class="st1" points="50.7,74.7 42.2,77.5 41.7,68.5 50.3,65.8 		"/>
		<polygon class="st1" points="33.3,88.5 24.3,91.4 23.4,74.8 31.9,62.3 		"/>
		<polygon class="st1" points="41.3,86.2 41.8,95.9 33.2,98.7 24.3,91.7 		"/>
		<polygon class="st17" points="24.9,113.9 42.5,108.2 43,117.4 33.7,120.4 		"/>
		<polygon class="st1" points="24.4,104.6 32.9,101.9 33.4,110.8 24.9,113.6 		"/>
		<polygon class="st1" points="41.6,86.1 50.5,91.9 51.2,105.7 43.2,117.2 		"/>
	</g>
	<g>
		<path class="st1" d="M85.6,86.7H78v7.8h-3.9V75.4h12.4v3.2H78v4.9h7.6V86.7z"/>
		<path class="st1" d="M100.3,86.7h-7.6v7.8h-3.9V75.4h12.4v3.2h-8.5v4.9h7.6V86.7z"/>
		<path class="st1" d="M119.2,85.4c0,1.9-0.3,3.5-1,4.9s-1.6,2.5-2.8,3.3s-2.7,1.2-4.3,1.2c-1.6,0-3-0.4-4.2-1.1
			c-1.2-0.8-2.2-1.9-2.9-3.3c-0.7-1.4-1-3-1-4.9v-0.9c0-1.9,0.3-3.5,1-5s1.6-2.5,2.9-3.3c1.2-0.8,2.7-1.1,4.2-1.1
			c1.6,0,3,0.4,4.2,1.1c1.2,0.8,2.2,1.9,2.9,3.3c0.7,1.4,1,3.1,1,4.9L119.2,85.4L119.2,85.4z M115.2,84.5c0-2-0.4-3.5-1.1-4.6
			c-0.7-1-1.7-1.6-3.1-1.6c-1.3,0-2.3,0.5-3.1,1.5s-1.1,2.5-1.1,4.5v0.9c0,1.9,0.4,3.5,1.1,4.5s1.7,1.6,3.1,1.6c1.3,0,2.3-0.5,3-1.6
			c0.7-1,1.1-2.5,1.1-4.5L115.2,84.5L115.2,84.5z"/>
		<path class="st1" d="M136.5,75.4V88c0,2.1-0.7,3.7-2,5s-3.1,1.8-5.4,1.8c-2.2,0-4-0.6-5.3-1.8s-2-2.8-2-4.9V75.4h3.9V88
			c0,1.3,0.3,2.2,0.9,2.7s1.4,0.9,2.5,0.9c2.2,0,3.3-1.2,3.4-3.5V75.4H136.5z"/>
		<path class="st1" d="M146.8,87.5h-3.1v7h-3.9V75.4h7.1c2.2,0,4,0.5,5.2,1.5c1.2,1,1.8,2.4,1.8,4.3c0,1.3-0.3,2.4-0.8,3.3
			s-1.4,1.6-2.6,2.1l4.1,7.8v0.2h-4.2L146.8,87.5z M143.7,84.3h3.2c1,0,1.8-0.2,2.3-0.7c0.5-0.5,0.8-1.2,0.8-2.1
			c0-0.9-0.3-1.6-0.8-2.1c-0.5-0.5-1.3-0.8-2.4-0.8h-3.2L143.7,84.3L143.7,84.3z"/>
		<path class="st1" d="M162.9,84l4-8.6h4.3l-6.3,12.2v6.9h-4v-6.9l-6.3-12.2h4.3L162.9,84z"/>
	</g>
	<path class="st1" d="M54.1,94.1L54,94.3h4.3l0.2-0.6L54.1,94.1z M72.2,94.1l-4.3-0.3l0.2,0.5h4.3L72.2,94.1z"/>
	<polygon class="st1" points="60.6,75.2 59.4,78.6 65.7,75.2 	"/>
	<g>
		<g>
			<path class="st1" d="M82.8,103.7v3.5H82v-8.6H85c0.9,0,1.6,0.2,2.1,0.7c0.5,0.4,0.8,1.1,0.8,1.9c0,0.8-0.2,1.4-0.7,1.9
				c-0.5,0.4-1.2,0.7-2.2,0.7L82.8,103.7L82.8,103.7z M82.8,103.1H85c0.7,0,1.2-0.2,1.6-0.5c0.4-0.3,0.6-0.8,0.6-1.4
				c0-0.6-0.2-1.1-0.5-1.4c-0.4-0.4-0.9-0.5-1.6-0.5h-2.2L82.8,103.1L82.8,103.1z"/>
			<path class="st1" d="M93.3,104.8h-3.9l-0.9,2.4h-0.8l3.3-8.6h0.7l3.3,8.6h-0.7L93.3,104.8z M89.6,104.2h3.4l-1.7-4.7L89.6,104.2z
				"/>
			<path class="st1" d="M97,103.7v3.5h-0.7v-8.6h2.9c0.9,0,1.6,0.2,2.1,0.7c0.5,0.4,0.8,1.1,0.8,1.9c0,0.8-0.2,1.4-0.7,1.9
				c-0.5,0.4-1.2,0.7-2.2,0.7L97,103.7L97,103.7z M97,103.1h2.2c0.7,0,1.2-0.2,1.6-0.5c0.4-0.3,0.6-0.8,0.6-1.4
				c0-0.6-0.2-1.1-0.5-1.4c-0.4-0.4-0.9-0.5-1.6-0.5H97L97,103.1L97,103.1z"/>
			<path class="st1" d="M108.4,103.1h-4v3.5h4.6v0.6h-5.3v-8.6h5.3v0.6h-4.6v3.2h4V103.1z"/>
			<path class="st1" d="M113.8,103.7h-2.5v3.6h-0.7v-8.6h2.8c0.9,0,1.6,0.2,2.2,0.7c0.5,0.4,0.8,1.1,0.8,1.9c0,0.5-0.2,1-0.5,1.5
				c-0.3,0.4-0.7,0.7-1.3,0.9l2.2,3.7v0.1h-0.8L113.8,103.7z M111.3,103h2.2c0.6,0,1.1-0.2,1.5-0.5c0.4-0.4,0.6-0.8,0.6-1.3
				c0-0.6-0.2-1.1-0.6-1.4c-0.4-0.3-0.9-0.5-1.6-0.5h-2L111.3,103L111.3,103z"/>
			<path class="st1" d="M122.5,102.6c-0.3-0.4-0.6-0.8-0.7-1.1c-0.1-0.3-0.2-0.6-0.2-1c0-0.6,0.2-1.1,0.5-1.4
				c0.4-0.4,0.8-0.5,1.4-0.5c0.5,0,1,0.1,1.3,0.5s0.5,0.7,0.5,1.2c0,0.6-0.3,1.1-1,1.7l-0.9,0.7l2.4,2.8c0.4-0.6,0.5-1.2,0.5-2h0.7
				c0,1-0.2,1.8-0.7,2.5l1.2,1.4h-0.8l-0.7-0.9c-0.3,0.3-0.7,0.5-1.1,0.7c-0.4,0.2-0.8,0.3-1.3,0.3c-0.8,0-1.5-0.2-1.9-0.6
				c-0.5-0.4-0.7-1-0.7-1.7c0-0.4,0.1-0.8,0.4-1.2S121.8,103,122.5,102.6L122.5,102.6z M123.4,106.8c0.4,0,0.7-0.1,1-0.2
				c0.3-0.1,0.6-0.4,0.9-0.6l-2.4-2.8l-0.1-0.1l-0.3,0.2c-0.8,0.6-1.2,1.2-1.2,1.8c0,0.5,0.2,0.9,0.5,1.2
				C122.3,106.6,122.8,106.8,123.4,106.8z M122.2,100.5c0,0.5,0.3,1,0.8,1.7l0.8-0.6c0.2-0.2,0.4-0.4,0.6-0.6
				c0.2-0.2,0.2-0.5,0.2-0.8c0-0.3-0.1-0.6-0.3-0.8s-0.5-0.3-0.8-0.3c-0.4,0-0.7,0.1-0.9,0.4C122.3,99.7,122.2,100.1,122.2,100.5z"
				/>
			<path class="st1" d="M131.6,107.2v-8.6h2.5c0.9,0,1.6,0.2,2.1,0.6c0.5,0.4,0.7,0.9,0.7,1.7c0,0.4-0.1,0.8-0.4,1.2
				c-0.2,0.3-0.6,0.6-1,0.7c0.5,0.1,0.9,0.4,1.2,0.7s0.4,0.8,0.4,1.3c0,0.8-0.2,1.3-0.7,1.8c-0.5,0.4-1.2,0.6-2,0.6H131.6z
				 M132.3,102.5h2c0.6,0,1.1-0.1,1.4-0.4s0.5-0.7,0.5-1.2c0-0.5-0.2-1-0.5-1.2c-0.3-0.3-0.9-0.4-1.6-0.4h-1.8V102.5z M132.3,103.1
				v3.5h2.2c0.6,0,1.1-0.1,1.5-0.5c0.4-0.3,0.5-0.7,0.5-1.3c0-0.5-0.2-1-0.5-1.3c-0.4-0.3-0.8-0.5-1.4-0.5H132.3z"/>
			<path class="st1" d="M145.3,103.4c0,0.8-0.1,1.5-0.4,2.1s-0.7,1-1.2,1.4c-0.5,0.3-1.1,0.5-1.8,0.5c-1,0-1.8-0.4-2.4-1.1
				c-0.6-0.7-0.9-1.7-0.9-2.9v-0.9c0-0.8,0.1-1.5,0.4-2.1s0.7-1.1,1.2-1.4c0.5-0.3,1.1-0.5,1.8-0.5c0.7,0,1.2,0.2,1.7,0.5
				s0.9,0.8,1.2,1.3c0.3,0.6,0.4,1.3,0.4,2L145.3,103.4L145.3,103.4z M144.6,102.5c0-1-0.2-1.8-0.7-2.4c-0.5-0.6-1.1-0.9-1.9-0.9
				c-0.8,0-1.4,0.3-1.9,0.9c-0.5,0.6-0.7,1.4-0.7,2.5v0.9c0,1,0.2,1.8,0.7,2.4s1.1,0.9,1.9,0.9c0.8,0,1.5-0.3,1.9-0.9
				c0.5-0.6,0.7-1.4,0.7-2.5L144.6,102.5L144.6,102.5z"/>
			<path class="st1" d="M151.7,104.8h-3.9l-0.9,2.4h-0.8l3.3-8.6h0.7l3.3,8.6h-0.7L151.7,104.8z M148,104.2h3.4l-1.7-4.7L148,104.2z
				"/>
			<path class="st1" d="M157.8,103.7h-2.5v3.6h-0.7v-8.6h2.8c0.9,0,1.6,0.2,2.2,0.7s0.8,1.1,0.8,1.9c0,0.5-0.2,1-0.5,1.5
				c-0.3,0.4-0.7,0.7-1.3,0.9l2.2,3.7v0.1h-0.8L157.8,103.7z M155.3,103h2.2c0.6,0,1.1-0.2,1.5-0.5c0.4-0.4,0.6-0.8,0.6-1.3
				c0-0.6-0.2-1.1-0.6-1.4c-0.4-0.3-0.9-0.5-1.6-0.5h-2V103z"/>
			<path class="st1" d="M162.3,107.2v-8.6h2.4c0.7,0,1.3,0.2,1.9,0.5c0.6,0.3,1,0.8,1.3,1.4c0.3,0.6,0.5,1.3,0.5,2v0.8
				c0,0.8-0.1,1.4-0.5,2c-0.3,0.6-0.7,1-1.3,1.4s-1.2,0.5-1.9,0.5H162.3z M163,99.3v7.4h1.6c0.9,0,1.6-0.3,2.2-0.9
				c0.5-0.6,0.8-1.4,0.8-2.4v-0.7c0-1-0.3-1.8-0.8-2.4c-0.5-0.6-1.3-0.9-2.1-0.9H163z"/>
		</g>
	</g>
	<g>
		<path class="st1" d="M174.1,72.1c0-0.6,0.1-1.2,0.4-1.8c0.3-0.5,0.7-1,1.2-1.3c0.5-0.3,1.1-0.5,1.7-0.5c0.6,0,1.2,0.1,1.7,0.5
			s0.9,0.7,1.2,1.3c0.3,0.5,0.4,1.1,0.4,1.8c0,0.6-0.1,1.2-0.4,1.8c-0.3,0.5-0.7,1-1.2,1.3c-0.5,0.3-1.1,0.5-1.7,0.5
			c-0.6,0-1.2-0.1-1.7-0.5c-0.5-0.3-0.9-0.7-1.2-1.3C174.2,73.3,174.1,72.7,174.1,72.1z M180.2,72.1c0-0.5-0.1-1-0.4-1.5
			c-0.2-0.4-0.6-0.8-1-1.1s-0.9-0.4-1.4-0.4c-0.5,0-1,0.1-1.4,0.4c-0.4,0.3-0.8,0.6-1,1.1c-0.2,0.4-0.4,1-0.4,1.5
			c0,0.5,0.1,1,0.4,1.5c0.2,0.4,0.6,0.8,1,1.1c0.4,0.3,0.9,0.4,1.4,0.4s1-0.1,1.4-0.4s0.8-0.6,1-1.1
			C180.1,73.1,180.2,72.6,180.2,72.1z M176.7,72.4V74H176v-4h1.3c0.5,0,0.8,0.1,1.1,0.3c0.3,0.2,0.4,0.5,0.4,0.9
			c0,0.4-0.2,0.6-0.5,0.8c0.2,0.1,0.3,0.2,0.4,0.4c0.1,0.2,0.1,0.4,0.1,0.7c0,0.3,0,0.4,0,0.5c0,0.1,0,0.2,0.1,0.3V74h-0.7
			c0-0.1-0.1-0.4-0.1-0.9c0-0.2-0.1-0.4-0.1-0.5c-0.1-0.1-0.3-0.1-0.5-0.1L176.7,72.4L176.7,72.4z M176.7,71.8h0.6
			c0.2,0,0.4-0.1,0.6-0.1s0.2-0.2,0.2-0.4c0-0.2-0.1-0.4-0.2-0.5s-0.3-0.1-0.6-0.1h-0.7V71.8z"/>
	</g>
	<path class="st1" d="M68.3,93.5l-11.4-8.1l-3.1,8.5c3.1-0.3,6.2-0.5,9.4-0.5C64.9,93.4,66.6,93.4,68.3,93.5z"/>
	<g class="st18">
		<path class="st5" d="M65.7,75.2l-12.2,7.4l14.9,11c1.5,0.1,2.7,0.2,4.2,0.3L65.7,75.2z"/>
	</g>
	<g>
		<path class="st0" d="M65.7,75.2l-11.9,7.4l14.5,11c1.4,0.1,2.8,0.2,4.2,0.3L65.7,75.2z"/>
		<path class="st19" d="M72.6,93.9L72.6,93.9c-1.4-0.1-2.8-0.3-4.2-0.3l0,0l0,0l-14.5-11l0,0l11.9-7.4L72.6,93.9z M68.4,93.5
			c1.4,0.1,2.8,0.2,4.1,0.3l-6.8-18.6l-11.8,7.3L68.4,93.5z"/>
	</g>
</g>
</svg>
