<?xml version="1.0" encoding="utf-8"?>
<!-- Generator: Adobe Illustrator 26.0.3, SVG Export Plug-In . SVG Version: 6.00 Build 0)  -->
<svg version="1.1" id="Layer_1" xmlns="http://www.w3.org/2000/svg" xmlns:xlink="http://www.w3.org/1999/xlink" x="0px" y="0px"
	 viewBox="0 0 31.2 63.6" style="enable-background:new 0 0 31.2 63.6;" xml:space="preserve">
<style type="text/css">
	.st0{opacity:0.92;}
	.st1{fill:#010101;}
	.st2{fill:#7EB642;}
</style>
<g class="st0">
	<polygon class="st1" points="28.9,8.1 11.4,13.8 10.9,4.6 20.2,1.6 	"/>
	<polygon class="st1" points="29.4,17.4 20.9,20.1 20.4,11.1 28.9,8.4 	"/>
	<polygon class="st1" points="12,31.1 3,34 2.1,17.4 10.6,4.9 	"/>
	<polygon class="st1" points="20,28.8 20.5,38.6 11.9,41.4 3,34.3 	"/>
	<polygon class="st1" points="3.6,56.5 21.2,50.8 21.6,60 12.4,63 	"/>
	<polygon class="st1" points="3.1,47.2 11.6,44.5 12.1,53.5 3.6,56.2 	"/>
	<polygon class="st1" points="20.3,28.7 29.1,34.5 29.9,48.3 21.9,59.8 	"/>
</g>
<g>
	<polygon class="st2" points="28,7.5 10.5,13.2 10,4 19.3,1 	"/>
	<polygon class="st2" points="28.5,16.7 20,19.5 19.5,10.5 28.1,7.8 	"/>
	<polygon class="st2" points="11.1,30.5 2.1,33.4 1.2,16.8 9.7,4.3 	"/>
	<polygon class="st2" points="19.1,28.2 19.6,37.9 11,40.7 2.1,33.7 	"/>
	<polygon class="st2" points="2.7,55.9 20.3,50.2 20.8,59.4 11.5,62.4 	"/>
	<polygon class="st2" points="2.2,46.6 10.7,43.9 11.2,52.8 2.7,55.6 	"/>
	<polygon class="st2" points="19.4,28.1 28.3,33.9 29,47.7 21,59.2 	"/>
</g>
</svg>
